<svg xmlns="http://www.w3.org/2000/svg" width="1672" height="941"><metadata><?xpacket begin="" id="W5M0MpCehiHzreSzNTczkc9d"?><x:xmpmeta xmlns:x="adobe:ns:meta/" x:xmptk="XMP Core 6.0.0"><rdf:RDF xmlns:rdf="http://www.w3.org/1999/02/22-rdf-syntax-ns#"><rdf:Description rdf:about="" xmlns:xmp="http://ns.adobe.com/xap/1.0/" xmlns:xmpMM="http://ns.adobe.com/xap/1.0/mm/" xmlns:dc="http://purl.org/dc/elements/1.1/" xmlns:dcterms="http://purl.org/dc/terms/" xmpMM:DocumentID="xmp.did:cb9f5498-bb58-4572-8043-8c369e6bfb9b" xmpMM:InstanceID="xmp.iid:cb9f5498-bb58-4572-8043-8c369e6bfb9b" dcterms:provenance="https://cai-manifests.adobe.com/manifests/urn-c2pa-618569af-cccb-4e19-89fa-da0dfd954068-adobe"> </rdf:Description></rdf:RDF></x:xmpmeta>
<?xpacket end="w"?></metadata>
<defs>
</defs>
<path d="M0,940.5 C0,940.5 0,0 0,0 C0,0 1672,0 1672,0 C1672,0 1672,941 1672,941 C1672,941 0,941 0,941 C0,941 0,940.5 0,940.5 Z M1508.93,199.259 C1508.93,199.259 1513.63,146.9 1513.63,146.9 C1514.03,142.503 1510.28,139.181 1506.46,138.927 C1503.12,138.704 1498.53,140.899 1498.12,145.089 C1498.12,145.089 1493.31,195.047 1493.31,195.047 C1492.88,199.563 1494.77,203.533 1498.73,204.643 C1502.77,205.775 1507.12,203.995 1508.93,199.259 Z M1547.79,221.711 C1547.79,221.711 1581.94,184.041 1581.94,184.041 C1585.28,180.349 1584.37,175.429 1581.52,172.769 C1578.6,170.043 1573.57,169.259 1570.57,172.622 C1570.57,172.622 1535.76,211.584 1535.76,211.584 C1532.77,214.935 1534.75,220.55 1537.62,222.612 C1540.44,224.649 1544.95,224.842 1547.79,221.711 Z M193.974,546.941 C193.974,546.941 194.796,548.789 194.796,548.789 C191.899,550.299 187.205,551.251 185.296,554.404 C185.296,554.404 134.809,637.785 134.809,637.785 C134.809,637.785 97.032,700.892 97.032,700.892 C85.6311,704.383 66.7065,709.348 65.0126,720.618 C62.003,740.642 108.073,744.781 106.067,747.46 C106.067,747.46 105.274,749.138 105.274,749.138 C105.274,749.138 30.6159,830.486 30.6159,830.486 C30.6159,830.486 230.047,830.554 230.047,830.554 C230.047,830.554 259.648,777.711 259.648,777.711 C263.154,771.452 261.449,764.522 258.606,758.467 C262.088,753.231 267.261,751.087 272.787,749.994 C273.26,751.492 273.812,752.339 276.284,752.339 C276.284,752.339 633.762,752.339 633.762,752.339 C635.589,752.339 635.464,750.579 635.266,749.95 C640.579,751.188 645.24,752.513 649.381,757.056 C646.279,762.651 643.633,769.856 646.813,776.245 C646.813,776.245 673.863,830.584 673.863,830.584 C673.863,830.584 872.017,830.462 872.017,830.462 C872.017,830.462 803.888,751.487 803.888,751.487 C803.888,751.487 802.887,749.423 802.887,749.423 C802.566,748.991 803.369,747.473 804.201,747.337 C821.165,744.555 853.133,738.191 853.292,722.504 C853.411,710.641 833.752,704.137 821.046,701.551 C821.046,701.551 736.845,555.39 736.845,555.39 C734.881,551.981 731.105,550.191 727.672,549.555 C740.52,530.07 757.922,513.604 778.043,499.994 C814.002,475.671 856.177,464.195 899.415,465.549 C899.415,465.549 885.24,480.318 885.24,480.318 C882.143,483.544 883.53,488.764 886.938,491.359 C890.341,493.95 894.492,492.861 897.688,489.701 C897.688,489.701 923.385,464.302 923.385,464.302 C925.732,461.982 928.166,456.983 925.038,453.838 C925.038,453.838 895.199,423.84 895.199,423.84 C892.443,421.069 887.698,423.176 885.791,425.333 C883.287,428.163 882.583,432.375 885.553,435.539 C885.553,435.539 898.496,449.326 898.496,449.326 C831.728,448.545 771.643,473.637 728.626,522.51 C728.626,522.51 720.485,388.004 720.485,388.004 C720.485,388.004 712.21,244.165 712.21,244.165 C711.455,231.034 702.908,223.117 689.748,223.122 C689.748,223.122 227.535,223.31 227.535,223.31 C218.264,223.314 211.682,230.56 209.54,238.805 C209.54,238.805 199.775,405.98 199.775,405.98 C199.775,405.98 192.453,537.866 192.453,537.866 C192.252,541.472 192.801,544.307 193.974,546.941 Z M949.937,301.152 C949.937,301.152 949.889,599.807 949.889,599.807 C949.887,613.96 960.4,623.096 974.24,623.09 C974.24,623.09 1506.77,622.832 1506.77,622.832 C1516.97,622.827 1526.53,612.354 1526.53,602.811 C1526.53,602.811 1526.78,349.174 1526.78,349.174 C1526.78,349.174 1526.61,298.395 1526.61,298.395 C1526.61,298.395 1526.43,252.185 1526.43,252.185 C1526.38,239.403 1515.31,231.122 1502.77,231.125 C1502.77,231.125 971.195,231.258 971.195,231.258 C959.372,231.261 950.054,241.934 950.032,252.888 C950.032,252.888 949.937,301.152 949.937,301.152 Z M1564.55,263.429 C1564.55,263.429 1616,252.251 1616,252.251 C1619.77,251.43 1620.53,245.381 1619.77,242.786 C1618.93,239.96 1616.04,236.327 1611.95,237.22 C1611.95,237.22 1562.95,247.935 1562.95,247.935 C1558.97,248.806 1557.6,253.458 1557.67,256.534 C1557.73,258.98 1560.27,264.36 1564.55,263.429 Z M154.467,529.299 C154.467,529.299 133.136,489.995 133.136,489.995 C131.096,486.236 127.341,484.331 123.849,485.555 C120.78,486.631 116.907,491.27 118.945,495.005 C118.945,495.005 141.896,537.062 141.896,537.062 C143.529,540.053 149.212,539.363 151.331,537.94 C153.548,536.451 156.211,532.514 154.467,529.299 Z M124.049,553.232 C124.049,553.232 83.9241,533.061 83.9241,533.061 C79.8616,531.019 75.8537,533.669 74.3487,536.937 C73.1453,539.551 72.8943,544.891 76.4531,546.654 C76.4531,546.654 117.939,567.213 117.939,567.213 C121.605,569.03 125.702,565.678 126.697,563.284 C127.973,560.217 127.845,555.14 124.049,553.232 Z M74.1084,612.462 C74.1084,612.462 114.006,604.879 114.006,604.879 C118.01,604.118 119.541,600.17 119.148,596.472 C118.863,593.791 115.772,589.376 112.055,590.02 C112.055,590.02 70.9856,597.135 70.9856,597.135 C65.7985,598.034 62.2552,602.185 63.5364,607.015 C64.8034,611.792 69.2614,613.384 74.1084,612.462 Z " fill="rgb(241,252,244)"/>
<path d="M1526.61,298.395 C1526.61,298.395 1526.78,349.174 1526.78,349.174 C1526.78,349.174 1526.53,602.811 1526.53,602.811 C1526.53,612.354 1516.97,622.827 1506.77,622.832 C1506.77,622.832 974.24,623.09 974.24,623.09 C960.4,623.096 949.887,613.96 949.889,599.807 C949.889,599.807 949.937,301.152 949.937,301.152 C950.905,300.857 950.972,300.265 951.19,298.33 C951.19,298.33 1526.61,298.395 1526.61,298.395 Z M1012.67,376.122 C1012.67,376.122 1026.17,363.169 1026.17,363.169 C1028.55,360.888 1027.26,357.161 1025.02,355.026 C1025.02,355.026 1011.13,341.818 1011.13,341.818 C1008.78,339.574 1005.29,340.702 1003.46,342.878 C1002.08,344.521 1001.11,347.773 1003.18,349.832 C1003.18,349.832 1013.34,359.948 1013.34,359.948 C1013.34,359.948 1003.85,368.875 1003.85,368.875 C1001.35,371.224 1001.91,375.311 1003.65,376.967 C1006.48,379.671 1009.94,378.739 1012.67,376.122 Z M1243.84,374.014 C1253.31,374.021 1258.47,364.323 1257.23,356.78 C1255.77,347.98 1248.8,344.027 1239.84,344.052 C1239.84,344.052 1068.2,344.536 1068.2,344.536 C1060.48,344.557 1055.62,352.159 1055.29,358.626 C1054.99,364.759 1059.07,373.879 1067.18,373.885 C1067.18,373.885 1243.84,374.014 1243.84,374.014 Z M1010.89,437.366 C1010.89,437.366 1025.17,424.182 1025.17,424.182 C1028.09,421.482 1028.11,417.534 1025.14,414.828 C1025.14,414.828 1010,401.005 1010,401.005 C1007.49,398.712 1003.68,401.418 1002.78,403.365 C1001.48,406.168 1001.96,408.662 1004.18,410.801 C1004.18,410.801 1013.14,419.404 1013.14,419.404 C1013.14,419.404 1004.22,428.204 1004.22,428.204 C1001.91,430.484 1001.62,433.556 1002.97,435.647 C1004.61,438.186 1008.29,439.769 1010.89,437.366 Z M1356.84,433.857 C1365.06,433.859 1369.86,426.305 1370.07,419.41 C1370.25,413.245 1365.9,404.195 1357.72,404.195 C1357.72,404.195 1067.3,404.217 1067.3,404.217 C1059.44,404.218 1055.18,413.601 1055.31,419.455 C1055.43,425.198 1059.61,433.779 1067.26,433.781 C1067.26,433.781 1356.84,433.857 1356.84,433.857 Z M1011.17,497.204 C1011.17,497.204 1026,483.048 1026,483.048 C1028.19,480.957 1027.72,477.138 1025.69,475.286 C1025.69,475.286 1009.65,460.653 1009.65,460.653 C1007.43,458.629 1003.6,461.502 1002.77,463.305 C1001.58,465.864 1002.02,468.548 1004.29,470.755 C1004.29,470.755 1013.16,479.381 1013.16,479.381 C1013.16,479.381 1004.24,488.231 1004.24,488.231 C1001.81,490.639 1001.57,494.17 1003.45,496.276 C1005.28,498.342 1008.95,499.324 1011.17,497.204 Z M1243.89,493.716 C1252,493.72 1257.03,486.137 1257.4,479.4 C1257.76,473.049 1253.04,464.217 1244.82,464.209 C1244.82,464.209 1069.11,464.031 1069.11,464.031 C1060.9,464.023 1055.55,471.509 1055.31,478.517 C1055.1,485.143 1059.86,493.626 1068.11,493.63 C1068.11,493.63 1243.89,493.716 1243.89,493.716 Z M1067.17,575.533 C1067.17,575.533 1067.6,531.031 1067.6,531.031 C1067.61,529.389 1066.93,528.188 1066.02,527.502 C1065.34,526.994 1064.25,527.09 1063.02,527.084 C1063.02,527.084 1055.99,527.046 1055.99,527.046 C1053.37,527.032 1051.44,528.248 1051.47,531.031 C1051.47,531.031 1051.96,576.108 1051.96,576.108 C1052,579.202 1067.12,579.689 1067.17,575.533 Z M1012.52,569.024 C1012.52,569.024 1025.25,557.267 1025.25,557.267 C1028.17,554.577 1027.88,550.796 1024.98,548 C1024.98,548 1012.25,535.737 1012.25,535.737 C1009.5,533.08 1005.86,533.021 1003.43,535.858 C1001.63,537.973 1001.73,541.442 1004.2,543.798 C1004.2,543.798 1013.18,552.385 1013.18,552.385 C1013.18,552.385 1004.75,560.702 1004.75,560.702 C1002.11,563.306 1001.49,566.726 1003.5,569.132 C1005.8,571.878 1009.61,571.714 1012.52,569.024 Z " fill="rgb(15,49,38)"/>
<path d="M1526.61,298.395 C1526.61,298.395 951.19,298.33 951.19,298.33 C950.972,300.265 950.905,300.857 949.937,301.152 C949.937,301.152 950.032,252.888 950.032,252.888 C950.054,241.934 959.372,231.261 971.195,231.258 C971.195,231.258 1502.77,231.125 1502.77,231.125 C1515.31,231.122 1526.38,239.403 1526.43,252.185 C1526.43,252.185 1526.61,298.395 1526.61,298.395 Z M987.906,279.941 C995.708,281.78 1002.98,277.215 1004.81,270.422 C1006.76,263.15 1003.55,255.821 996.067,252.864 C988.585,249.905 980.328,254.723 978.2,261.705 C975.817,269.519 979.729,278.014 987.906,279.941 Z M1027.91,278.199 C1035.5,283.427 1045.64,279.146 1048.54,271.045 C1051.42,263.001 1046.85,253.978 1037.87,252.284 C1031.03,250.992 1024.73,255.507 1022.54,261.194 C1020.17,267.355 1022.31,274.343 1027.91,278.199 Z M1070.77,277.15 C1076.36,281.658 1083.82,281.571 1089.08,276.759 C1093.64,272.579 1095.15,265.7 1092.01,259.562 C1089.12,253.939 1082.5,250.662 1075.75,252.792 C1070.78,254.36 1067.26,258.807 1066.43,262.889 C1065.32,268.398 1066.58,273.769 1070.77,277.15 Z " fill="rgb(23,62,53)"/>
<path d="M728.626,522.51 C721.666,530.418 715.025,539.033 709.626,548.087 C709.626,548.087 677.725,547.935 677.725,547.935 C677.725,547.935 243.246,547.944 243.246,547.944 C243.246,547.944 196.936,548.167 196.936,548.167 C195.509,548.174 195.089,547.771 193.974,546.941 C192.801,544.307 192.252,541.472 192.453,537.866 C192.453,537.866 199.775,405.98 199.775,405.98 C199.775,405.98 209.54,238.805 209.54,238.805 C211.682,230.56 218.264,223.314 227.535,223.31 C227.535,223.31 689.748,223.122 689.748,223.122 C702.908,223.117 711.455,231.034 712.21,244.165 C712.21,244.165 720.485,388.004 720.485,388.004 C720.485,388.004 728.626,522.51 728.626,522.51 Z M219.632,395.663 C219.632,395.663 214.83,479.772 214.83,479.772 C214.83,479.772 212.155,528.81 212.155,528.81 C212.155,528.81 709.471,528.807 709.471,528.807 C709.471,528.807 705.387,458.196 705.387,458.196 C705.387,458.196 700.785,377.103 700.785,377.103 C700.785,377.103 693.048,247.111 693.048,247.111 C693.048,247.111 227.96,247.111 227.96,247.111 C227.96,247.111 219.632,395.663 219.632,395.663 Z " fill="rgb(22,59,51)"/>
<path d="M327.885,568.324 C328.919,569.855 331.456,569.706 332.656,570.476 C337.521,573.595 341.61,577.331 345.165,581.807 C344.843,582.29 345.873,583.397 345.866,584.062 C345.866,584.062 337.028,585.87 337.028,585.87 C321.361,591.468 308.201,600.915 296.526,612.627 C299.353,614.751 301.144,612.685 303.13,611.137 C316.902,600.4 331.185,590.82 346.899,585.292 C348.607,584.691 351.92,585.408 353.747,585.753 C353.747,585.753 356.204,586.216 356.204,586.216 C356.696,587.812 358.785,587.8 360.179,588.69 C360.179,588.69 373.896,597.456 373.896,597.456 C375.284,598.343 377.076,600.884 378.631,601.342 C379.345,601.553 380.162,602.659 380.792,603.09 C381.29,603.431 381.894,604.614 382.046,605.301 C386.464,609.764 390.8,616.521 388.05,622.732 C388.05,622.732 386.713,625.219 386.713,625.219 C379.659,632.759 368.891,631.439 360.273,625.651 C357.98,624.11 354.163,623.753 352.251,620.559 C352.251,620.559 344.828,625.897 344.828,625.897 C342.054,627.891 340.078,630.534 337.719,632.79 C337.719,632.79 332.665,637.625 332.665,637.625 C329.77,640.394 327.592,643.322 325.605,646.691 C321.346,653.917 314.247,668.065 316.524,671.998 C318.678,675.717 327.089,670.184 333.467,665.528 C333.467,665.528 358.164,646.943 358.164,646.943 C362.075,647.071 369.375,640.451 382.67,646.804 C382.889,649.326 386.475,650.477 387.014,655.774 C387.544,660.979 386.347,666.409 382.336,670.359 C382.336,670.359 367.823,684.649 367.823,684.649 C367.823,684.649 363.384,688.545 363.384,688.545 C363.384,688.545 337.505,713.635 337.505,713.635 C337.505,713.635 319.938,729.741 319.938,729.741 C317.743,729.741 301.322,744.348 272.787,749.994 C267.261,751.087 262.088,753.231 258.606,758.467 C239.891,730.936 204.785,712.557 172.144,706.651 C172.144,706.651 160.97,705.681 160.97,705.681 C160.97,705.681 168.261,693.067 168.261,693.067 C175.228,675.396 183.375,658.672 191.751,642.002 C198.169,629.229 205.873,617.102 213.9,605.24 C213.9,605.24 216.464,602.248 216.464,602.248 C220.884,597.091 226.871,590.978 232.125,587.512 C232.125,587.512 233.488,586.972 233.488,586.972 C233.825,586.839 234.012,586.47 234.046,586.064 C240.14,584.346 246.79,582.768 252.875,585.137 C247.777,591.289 240.695,596.013 235.824,603.984 C234.203,606.637 231.203,607.539 230.336,611.385 C234.237,611.306 234.999,608.162 236.873,606.201 C236.873,606.201 251.694,590.693 251.694,590.693 C253.128,589.193 254.275,587.47 253.964,585.597 C256.936,586.123 257.963,583.104 259.815,582.101 C260.801,581.768 261.103,580.936 262.277,580.193 C262.277,580.193 266.951,577.235 266.951,577.235 C277.15,570.779 289.978,569.079 298.042,576.961 C290.253,578.501 273.024,594.273 264.709,603.092 C263.343,604.541 265.638,606.486 266.93,605.186 C277.619,594.434 289.068,585.747 300.251,577.031 C303.916,574.175 307.999,572.067 312.3,570.343 C312.082,569.68 312.138,569.261 312.154,568.893 C312.154,568.893 327.885,568.324 327.885,568.324 Z " fill="rgb(253,200,161)"/>
<path d="M600.182,569.927 C598.444,569.574 598.677,571.484 599.886,570.924 C602.192,571.961 604.135,572.734 606.019,573.047 C606.346,573.708 607.467,573.651 607.931,573.894 C607.931,573.894 616.11,578.987 616.11,578.987 C620.581,574.419 626.982,572.521 633.081,572.95 C634.617,572.571 635.834,573.711 637.074,573.921 C644.282,575.141 649.405,580.186 655.274,584.647 C659.153,586.194 664.76,584.799 668.448,585.211 C668.448,585.211 674.934,585.935 674.934,585.935 C674.725,586.416 675.034,586.95 675.508,586.996 C675.954,587.038 676.375,587.106 676.702,587.273 C684.219,591.101 689.916,597.271 695.667,603.406 C695.921,603.678 695.933,604.112 695.963,604.501 C696,604.991 696.666,605.068 696.897,605.021 C696.897,605.021 704.63,616.214 704.63,616.214 C704.63,616.214 708.65,623.16 708.65,623.16 C708.65,623.16 711.607,628.473 711.607,628.473 C712.147,629.442 712.448,632.103 714.236,631.843 C714.893,633.852 716.121,635.787 717.263,637.467 C716.775,638.708 718.667,639.833 719.069,641.145 C719.069,641.145 720.894,647.093 720.894,647.093 C728.201,661.498 734.32,675.835 739.994,690.976 C739.994,690.976 745.914,702.885 745.914,702.885 C737.634,703.584 729.393,704.927 720.824,707.683 C694.088,716.282 665.47,733.97 649.381,757.056 C645.24,752.513 640.579,751.188 635.266,749.95 C626.097,747.813 616.357,745.292 608.067,739.959 C608.067,739.959 592.166,729.731 592.166,729.731 C592.166,729.731 579.151,717.833 579.151,717.833 C577.38,716.216 576.306,714.367 574.346,714.367 C565.944,702.596 552.301,692.18 543.25,682.805 C543.25,682.805 531.501,670.636 531.501,670.636 C527.598,666.593 526.268,660.945 527.132,655.812 C527.694,652.468 530.134,649.657 532,646.837 C539.182,643.91 547.639,642.271 554.764,647.285 C554.764,647.285 570.577,658.413 570.577,658.413 C577.258,663.115 592.307,677.229 595.895,672.563 C598.731,668.875 592.281,654.685 588.377,646.893 C584.796,639.746 579.271,634.247 573.359,628.663 C568.482,624.055 561.228,624.336 557.122,626.826 C557.122,626.826 552.957,629.351 552.957,629.351 C545.047,634.146 535.661,632.694 530.567,625.124 C529.78,623.689 529.419,622.2 529.416,620.704 C529.406,615.499 532.932,611.035 536.282,607.058 C537.385,605.749 538.567,604.685 539.182,602.987 C540.682,603.085 548.847,594.533 560.006,589.039 C561.222,588.44 562.621,587.965 563.946,587.907 C563.946,587.907 569.406,587.667 569.406,587.667 C570.914,587.601 570.832,585.688 571.254,585.137 C571.254,585.137 575.022,580.223 575.022,580.223 C575.508,579.589 576.168,579.588 576.138,578.065 C577.061,577.771 577.828,576.73 578.337,576.264 C581.33,573.52 585.993,571.705 590.06,570.351 C590.402,570.237 590.943,570.118 591.508,570.151 C591.851,570.171 592.26,569.699 592.022,569.225 C592.022,569.225 593.01,569.124 593.01,569.124 C595.214,568.9 598.228,568.051 600.182,569.927 Z M648.156,607.386 C649.168,608.286 650.759,605.693 650.027,605.499 C649.492,605.357 636.242,589.254 620.042,579.05 C618.957,578.367 618.563,578.261 618.053,578.404 C617.211,578.64 617.01,579.036 617.01,579.641 C617.011,580.196 617.189,580.509 617.989,581.088 C628.863,588.968 637.885,598.254 648.156,607.386 Z M586.027,590.096 C581.393,587.846 576.581,585.228 571.058,587.241 C586.806,593.981 599.765,603.062 612.836,613.15 C613.919,613.986 614.897,614.062 615.56,614.093 C621.715,614.379 600.735,597.24 586.027,590.096 Z M681.437,612.063 C676.434,601.765 668.232,595.159 661.448,587.776 C660.015,588.596 659.933,590.398 660.786,591.18 C668.054,597.84 672.711,606.603 681.437,612.063 Z " fill="rgb(253,199,161)"/>
<path d="M745.914,702.885 C756.135,702.023 764.3,706.823 771.096,714.503 C771.096,714.503 785.037,730.256 785.037,730.256 C785.037,730.256 803.888,751.487 803.888,751.487 C803.888,751.487 872.017,830.462 872.017,830.462 C872.017,830.462 673.863,830.584 673.863,830.584 C673.863,830.584 646.813,776.245 646.813,776.245 C643.633,769.856 646.279,762.651 649.381,757.056 C665.47,733.97 694.088,716.282 720.824,707.683 C729.393,704.927 737.634,703.584 745.914,702.885 Z " fill="rgb(41,96,83)"/>
<path d="M160.97,705.681 C160.97,705.681 172.144,706.651 172.144,706.651 C204.785,712.557 239.891,730.936 258.606,758.467 C261.449,764.522 263.154,771.452 259.648,777.711 C259.648,777.711 230.047,830.554 230.047,830.554 C230.047,830.554 30.6159,830.486 30.6159,830.486 C30.6159,830.486 105.274,749.138 105.274,749.138 C105.274,749.138 123.118,730.087 123.118,730.087 C123.118,730.087 138.238,714.122 138.238,714.122 C144.259,707.764 152.595,704.955 160.97,705.681 Z " fill="rgb(41,95,83)"/>
<path d="M319.938,729.741 C319.938,729.741 592.166,729.731 592.166,729.731 C592.166,729.731 608.067,739.959 608.067,739.959 C616.357,745.292 626.097,747.813 635.266,749.95 C635.464,750.579 635.589,752.339 633.762,752.339 C633.762,752.339 276.284,752.339 276.284,752.339 C273.812,752.339 273.26,751.492 272.787,749.994 C301.322,744.348 317.743,729.741 319.938,729.741 Z " fill="rgb(210,234,220)"/>
<path d="M727.672,549.555 C727.672,549.555 720.05,561.114 720.05,561.114 C719.015,562.684 717.469,564.051 717.992,565.996 C716.979,566.189 716.164,567.093 715.961,568.087 C715.826,568.747 715.152,569.562 714.843,570.126 C714.843,570.126 709.633,579.629 709.633,579.629 C709.633,579.629 705.873,584.871 705.873,584.871 C705.873,584.871 699.997,584.85 699.997,584.85 C697.575,582.988 695.382,580.9 695.012,578.365 C694.545,575.162 696.02,572.465 697.147,570.126 C697.815,570.04 698.152,569.321 697.881,568.711 C697.881,568.711 702.388,560.226 702.388,560.226 C702.388,560.226 709.626,548.087 709.626,548.087 C715.025,539.033 721.666,530.418 728.626,522.51 C771.643,473.637 831.728,448.545 898.496,449.326 C898.496,449.326 885.553,435.539 885.553,435.539 C882.583,432.375 883.287,428.163 885.791,425.333 C887.698,423.176 892.443,421.069 895.199,423.84 C895.199,423.84 925.038,453.838 925.038,453.838 C928.166,456.983 925.732,461.982 923.385,464.302 C923.385,464.302 897.688,489.701 897.688,489.701 C894.492,492.861 890.341,493.95 886.938,491.359 C883.53,488.764 882.143,483.544 885.24,480.318 C885.24,480.318 899.415,465.549 899.415,465.549 C856.177,464.195 814.002,475.671 778.043,499.994 C757.922,513.604 740.52,530.07 727.672,549.555 Z " fill="rgb(252,127,44)"/>
<path d="M1547.79,221.711 C1544.95,224.842 1540.44,224.649 1537.62,222.612 C1534.75,220.55 1532.77,214.935 1535.76,211.584 C1535.76,211.584 1570.57,172.622 1570.57,172.622 C1573.57,169.259 1578.6,170.043 1581.52,172.769 C1584.37,175.429 1585.28,180.349 1581.94,184.041 C1581.94,184.041 1547.79,221.711 1547.79,221.711 Z " fill="rgb(74,129,111)"/>
<path d="M1508.93,199.259 C1507.12,203.995 1502.77,205.775 1498.73,204.643 C1494.77,203.533 1492.88,199.563 1493.31,195.047 C1493.31,195.047 1498.12,145.089 1498.12,145.089 C1498.53,140.899 1503.12,138.704 1506.46,138.927 C1510.28,139.181 1514.03,142.503 1513.63,146.9 C1513.63,146.9 1508.93,199.259 1508.93,199.259 Z " fill="rgb(72,128,109)"/>
<path d="M1564.55,263.429 C1560.27,264.36 1557.73,258.98 1557.67,256.534 C1557.6,253.458 1558.97,248.806 1562.95,247.935 C1562.95,247.935 1611.95,237.22 1611.95,237.22 C1616.04,236.327 1618.93,239.96 1619.77,242.786 C1620.53,245.381 1619.77,251.43 1616,252.251 C1616,252.251 1564.55,263.429 1564.55,263.429 Z " fill="rgb(73,128,110)"/>
<path d="M124.049,553.232 C127.845,555.14 127.973,560.217 126.697,563.284 C125.702,565.678 121.605,569.03 117.939,567.213 C117.939,567.213 76.4531,546.654 76.4531,546.654 C72.8943,544.891 73.1453,539.551 74.3487,536.937 C75.8537,533.669 79.8616,531.019 83.9241,533.061 C83.9241,533.061 124.049,553.232 124.049,553.232 Z " fill="rgb(239,160,59)"/>
<path d="M154.467,529.299 C156.211,532.514 153.548,536.451 151.331,537.94 C149.212,539.363 143.529,540.053 141.896,537.062 C141.896,537.062 118.945,495.005 118.945,495.005 C116.907,491.27 120.78,486.631 123.849,485.555 C127.341,484.331 131.096,486.236 133.136,489.995 C133.136,489.995 154.467,529.299 154.467,529.299 Z " fill="rgb(240,161,60)"/>
<path d="M74.1084,612.462 C69.2614,613.384 64.8034,611.792 63.5364,607.015 C62.2552,602.185 65.7985,598.034 70.9856,597.135 C70.9856,597.135 112.055,590.02 112.055,590.02 C115.772,589.376 118.863,593.791 119.148,596.472 C119.541,600.17 118.01,604.118 114.006,604.879 C114.006,604.879 74.1084,612.462 74.1084,612.462 Z " fill="rgb(238,161,62)"/>
<path d="M96.4412,708.136 C97.3867,722.25 108.779,729.478 123.118,730.087 C123.118,730.087 105.274,749.138 105.274,749.138 C105.274,749.138 106.067,747.46 106.067,747.46 C108.073,744.781 62.003,740.642 65.0126,720.618 C66.7065,709.348 85.6311,704.383 97.032,700.892 C95.6825,703.146 96.2779,705.699 96.4412,708.136 Z " fill="rgb(209,233,220)"/>
<path d="M803.888,751.487 C803.888,751.487 785.037,730.256 785.037,730.256 C785.037,730.256 800.202,729.396 800.202,729.396 C813.085,727.654 822.415,717.039 820.656,704.534 C820.541,703.716 820.918,702.476 821.046,701.551 C833.752,704.137 853.411,710.641 853.292,722.504 C853.133,738.191 821.165,744.555 804.201,747.337 C803.369,747.473 802.566,748.991 802.887,749.423 C802.887,749.423 803.888,751.487 803.888,751.487 Z " fill="rgb(209,233,220)"/>
<path d="M1356.84,433.857 C1356.84,433.857 1067.26,433.781 1067.26,433.781 C1059.61,433.779 1055.43,425.198 1055.31,419.455 C1055.18,413.601 1059.44,404.218 1067.3,404.217 C1067.3,404.217 1357.72,404.195 1357.72,404.195 C1365.9,404.195 1370.25,413.245 1370.07,419.41 C1369.86,426.305 1365.06,433.859 1356.84,433.857 Z " fill="rgb(120,178,224)"/>
<path d="M1243.84,374.014 C1243.84,374.014 1067.18,373.885 1067.18,373.885 C1059.07,373.879 1054.99,364.759 1055.29,358.626 C1055.62,352.159 1060.48,344.557 1068.2,344.536 C1068.2,344.536 1239.84,344.052 1239.84,344.052 C1248.8,344.027 1255.77,347.98 1257.23,356.78 C1258.47,364.323 1253.31,374.021 1243.84,374.014 Z " fill="rgb(107,161,140)"/>
<path d="M1243.89,493.716 C1243.89,493.716 1068.11,493.63 1068.11,493.63 C1059.86,493.626 1055.1,485.143 1055.31,478.517 C1055.55,471.509 1060.9,464.023 1069.11,464.031 C1069.11,464.031 1244.82,464.209 1244.82,464.209 C1253.04,464.217 1257.76,473.049 1257.4,479.4 C1257.03,486.137 1252,493.72 1243.89,493.716 Z " fill="rgb(142,194,173)"/>
<path d="M1067.17,575.533 C1067.12,579.689 1052,579.202 1051.96,576.108 C1051.96,576.108 1051.47,531.031 1051.47,531.031 C1051.44,528.248 1053.37,527.032 1055.99,527.046 C1055.99,527.046 1063.02,527.084 1063.02,527.084 C1064.25,527.09 1065.34,526.994 1066.02,527.502 C1066.93,528.188 1067.61,529.389 1067.6,531.031 C1067.6,531.031 1067.17,575.533 1067.17,575.533 Z " fill="rgb(247,172,70)"/>
<path d="M1010.89,437.366 C1008.29,439.769 1004.61,438.186 1002.97,435.647 C1001.62,433.556 1001.91,430.484 1004.22,428.204 C1004.22,428.204 1013.14,419.404 1013.14,419.404 C1013.14,419.404 1004.18,410.801 1004.18,410.801 C1001.96,408.662 1001.48,406.168 1002.78,403.365 C1003.68,401.418 1007.49,398.712 1010,401.005 C1010,401.005 1025.14,414.828 1025.14,414.828 C1028.11,417.534 1028.09,421.482 1025.17,424.182 C1025.17,424.182 1010.89,437.366 1010.89,437.366 Z " fill="rgb(250,250,250)"/>
<path d="M1011.17,497.204 C1008.95,499.324 1005.28,498.342 1003.45,496.276 C1001.57,494.17 1001.81,490.639 1004.24,488.231 C1004.24,488.231 1013.16,479.381 1013.16,479.381 C1013.16,479.381 1004.29,470.755 1004.29,470.755 C1002.02,468.548 1001.58,465.864 1002.77,463.305 C1003.6,461.502 1007.43,458.629 1009.65,460.653 C1009.65,460.653 1025.69,475.286 1025.69,475.286 C1027.72,477.138 1028.19,480.957 1026,483.048 C1026,483.048 1011.17,497.204 1011.17,497.204 Z " fill="rgb(249,250,249)"/>
<path d="M1012.67,376.122 C1009.94,378.739 1006.48,379.671 1003.65,376.967 C1001.91,375.311 1001.35,371.224 1003.85,368.875 C1003.85,368.875 1013.34,359.948 1013.34,359.948 C1013.34,359.948 1003.18,349.832 1003.18,349.832 C1001.11,347.773 1002.08,344.521 1003.46,342.878 C1005.29,340.702 1008.78,339.574 1011.13,341.818 C1011.13,341.818 1025.02,355.026 1025.02,355.026 C1027.26,357.161 1028.55,360.888 1026.17,363.169 C1026.17,363.169 1012.67,376.122 1012.67,376.122 Z " fill="rgb(250,250,250)"/>
<path d="M1012.52,569.024 C1009.61,571.714 1005.8,571.878 1003.5,569.132 C1001.49,566.726 1002.11,563.306 1004.75,560.702 C1004.75,560.702 1013.18,552.385 1013.18,552.385 C1013.18,552.385 1004.2,543.798 1004.2,543.798 C1001.73,541.442 1001.63,537.973 1003.43,535.858 C1005.86,533.021 1009.5,533.08 1012.25,535.737 C1012.25,535.737 1024.98,548 1024.98,548 C1027.88,550.796 1028.17,554.577 1025.25,557.267 C1025.25,557.267 1012.52,569.024 1012.52,569.024 Z " fill="rgb(249,250,249)"/>
<path d="M1070.77,277.15 C1066.58,273.769 1065.32,268.398 1066.43,262.889 C1067.26,258.807 1070.78,254.36 1075.75,252.792 C1082.5,250.662 1089.12,253.939 1092.01,259.562 C1095.15,265.7 1093.64,272.579 1089.08,276.759 C1083.82,281.571 1076.36,281.658 1070.77,277.15 Z " fill="rgb(156,204,184)"/>
<path d="M987.906,279.941 C979.729,278.014 975.817,269.519 978.2,261.705 C980.328,254.723 988.585,249.905 996.067,252.864 C1003.55,255.821 1006.76,263.15 1004.81,270.422 C1002.98,277.215 995.708,281.78 987.906,279.941 Z " fill="rgb(251,131,46)"/>
<path d="M1027.91,278.199 C1022.31,274.343 1020.17,267.355 1022.54,261.194 C1024.73,255.507 1031.03,250.992 1037.87,252.284 C1046.85,253.978 1051.42,263.001 1048.54,271.045 C1045.64,279.146 1035.5,283.427 1027.91,278.199 Z " fill="rgb(97,150,131)"/>
<path d="M700.785,377.103 C700.35,377.368 699.847,377.721 699.313,377.625 C663.337,371.175 633.549,384.095 601.911,399.929 C578.079,411.856 554.851,423.532 530.934,433.825 C530.934,433.825 528.874,434.246 528.874,434.246 C502.308,426.549 477.553,416.444 452.921,404.151 C452.921,404.151 404.931,380.201 404.931,380.201 C391.589,373.542 378.487,368.654 364.06,364.735 C324.646,354.028 290.165,364.557 254.058,381.11 C254.058,381.11 221.927,395.841 221.927,395.841 C221.927,395.841 220.508,396.813 220.508,396.813 C220.265,396.979 219.67,396 219.632,395.663 C219.632,395.663 227.96,247.111 227.96,247.111 C227.96,247.111 693.048,247.111 693.048,247.111 C693.048,247.111 700.785,377.103 700.785,377.103 Z M613.196,345.246 C629.014,331.026 628.453,306.484 612.135,292.724 C598.15,280.931 576.932,283.05 565.038,296.38 C552.934,309.945 553.285,330.376 566.078,343.432 C578.573,356.186 599.408,357.641 613.196,345.246 Z " fill="rgb(223,245,248)"/>
<path d="M607.135,454.574 C639.793,446.756 673.443,447.045 705.387,458.196 C705.387,458.196 709.471,528.807 709.471,528.807 C709.471,528.807 212.155,528.81 212.155,528.81 C212.155,528.81 214.83,479.772 214.83,479.772 C214.83,479.772 235.402,475.56 235.402,475.56 C235.402,475.56 268.233,470.053 268.233,470.053 C268.233,470.053 275.481,469.141 275.481,469.141 C275.203,448.178 275.458,402.604 293.77,400.462 C297.886,399.98 301.73,402.217 304.339,405.752 C314.035,422.011 312.692,445.681 312.908,466.534 C375.797,464.085 432.952,477.848 491.76,496.97 C491.76,496.97 550.899,472.695 550.899,472.695 C569.523,465.051 588.119,459.127 607.135,454.574 Z " fill="rgb(90,144,125)"/>
<path d="M700.785,377.103 C700.785,377.103 705.387,458.196 705.387,458.196 C673.443,447.045 639.793,446.756 607.135,454.574 C604.92,451.747 601.559,451.441 597.919,450.836 C575.79,447.162 554.685,441.819 533.25,435.698 C533.25,435.698 530.934,433.825 530.934,433.825 C554.851,423.532 578.079,411.856 601.911,399.929 C633.549,384.095 663.337,371.175 699.313,377.625 C699.847,377.721 700.35,377.368 700.785,377.103 Z " fill="rgb(123,173,182)"/>
<path d="M530.934,433.825 C530.934,433.825 533.25,435.698 533.25,435.698 C554.685,441.819 575.79,447.162 597.919,450.836 C601.559,451.441 604.92,451.747 607.135,454.574 C588.119,459.127 569.523,465.051 550.899,472.695 C550.899,472.695 491.76,496.97 491.76,496.97 C432.952,477.848 375.797,464.085 312.908,466.534 C312.692,445.681 314.035,422.011 304.339,405.752 C301.73,402.217 297.886,399.98 293.77,400.462 C275.458,402.604 275.203,448.178 275.481,469.141 C275.481,469.141 268.233,470.053 268.233,470.053 C268.673,457.226 268.27,443.998 263.36,431.855 C260.811,425.549 253.838,421.474 247.913,424.872 C235.916,431.752 235.646,459.465 235.402,475.56 C235.402,475.56 214.83,479.772 214.83,479.772 C214.83,479.772 219.632,395.663 219.632,395.663 C219.67,396 220.265,396.979 220.508,396.813 C220.508,396.813 221.927,395.841 221.927,395.841 C221.927,395.841 254.058,381.11 254.058,381.11 C290.165,364.557 324.646,354.028 364.06,364.735 C378.487,368.654 391.589,373.542 404.931,380.201 C404.931,380.201 452.921,404.151 452.921,404.151 C477.553,416.444 502.308,426.549 528.874,434.246 C528.874,434.246 530.934,433.825 530.934,433.825 Z " fill="rgb(146,196,175)"/>
<path d="M527.132,655.812 C526.268,660.945 527.598,666.593 531.501,670.636 C531.501,670.636 543.25,682.805 543.25,682.805 C543.25,682.805 545.566,698.157 545.566,698.157 C546.07,701.033 543.892,703.768 540.599,703.769 C540.599,703.769 369.155,703.793 369.155,703.793 C361.076,703.794 365.231,695.846 367.823,684.649 C367.823,684.649 382.336,670.359 382.336,670.359 C386.347,666.409 387.544,660.979 387.014,655.774 C387.014,655.774 527.132,655.812 527.132,655.812 Z " fill="rgb(128,148,160)"/>
<path d="M337.505,713.635 C337.505,713.635 574.346,714.367 574.346,714.367 C576.306,714.367 577.38,716.216 579.151,717.833 C579.151,717.833 592.166,729.731 592.166,729.731 C592.166,729.731 319.938,729.741 319.938,729.741 C319.938,729.741 337.505,713.635 337.505,713.635 Z " fill="rgb(106,130,140)"/>
<path d="M382.67,646.804 C369.375,640.451 362.075,647.071 358.164,646.943 C358.164,646.943 336.05,646.22 336.05,646.22 C335.287,641.109 337.969,637.37 337.719,632.79 C340.078,630.534 342.054,627.891 344.828,625.897 C349.923,624.951 355.143,625.676 360.273,625.651 C368.891,631.439 379.659,632.759 386.713,625.219 C386.713,625.219 510.904,625.688 510.904,625.688 C513.999,625.7 514.769,628.58 515.085,630.916 C515.085,630.916 516.635,642.388 516.635,642.388 C516.874,644.162 516.389,646.721 513.849,646.723 C513.849,646.723 382.67,646.804 382.67,646.804 Z " fill="rgb(25,60,55)"/>
<path d="M197.091,605.154 C197.091,605.154 210.114,605.142 210.114,605.142 C210.114,605.142 212.454,603.884 212.454,603.884 C212.829,603.683 213.493,605.08 213.9,605.24 C205.873,617.102 198.169,629.229 191.751,642.002 C191.751,642.002 165.122,642.087 165.122,642.087 C163.198,642.081 162.775,639.402 163.367,638.366 C163.367,638.366 173.809,620.068 173.809,620.068 C176.445,613.301 186.265,620.413 190.589,614.132 C184.773,612.217 179.359,614.364 178.573,611.855 C180.114,609.199 180.861,605.557 183.903,603.972 C183.84,604.452 184.098,605.029 184.95,605.037 C184.95,605.037 197.091,605.154 197.091,605.154 Z " fill="rgb(45,78,78)"/>
<path d="M232.125,587.512 C226.871,590.978 220.884,597.091 216.464,602.248 C216.464,602.248 213.9,605.24 213.9,605.24 C213.493,605.08 212.829,603.683 212.454,603.884 C212.454,603.884 210.114,605.142 210.114,605.142 C210.114,605.142 197.091,605.154 197.091,605.154 C197.091,605.154 184.087,601.899 184.087,601.899 C184.087,601.899 192.324,586.807 192.324,586.807 C192.324,586.807 232.125,587.512 232.125,587.512 Z " fill="rgb(29,64,60)"/>
<path d="M336.05,646.22 C336.05,646.22 358.164,646.943 358.164,646.943 C358.164,646.943 333.467,665.528 333.467,665.528 C327.089,670.184 318.678,675.717 316.524,671.998 C314.247,668.065 321.346,653.917 325.605,646.691 C327.161,646.695 328.597,646.357 329.754,646.766 C330.211,646.927 330.942,646.984 331.133,646.647 C331.133,646.647 332.068,644.999 332.068,644.999 C332.068,644.999 336.05,646.22 336.05,646.22 Z " fill="rgb(167,182,197)"/>
<path d="M383.864,586.942 C383.864,586.942 393,587.006 393,587.006 C393,587.006 395.108,586.76 395.108,586.76 C397.607,586.469 400.248,586.775 402.755,586.823 C402.755,586.823 411.99,587.08 411.99,587.08 C415.564,590.303 413.415,602.552 411.04,602.6 C411.04,602.6 392.053,602.982 392.053,602.982 C392.053,602.982 380.792,603.09 380.792,603.09 C380.162,602.659 379.345,601.553 378.631,601.342 C378.631,601.342 380.379,590.313 380.379,590.313 C380.638,588.279 382.153,586.93 383.864,586.942 Z " fill="rgb(32,67,65)"/>
<path d="M239.026,570.141 C239.026,570.141 261.891,570.499 261.891,570.499 C262.456,570.598 264.298,571.911 263.848,572.935 C263.848,572.935 259.815,582.101 259.815,582.101 C257.963,583.104 256.936,586.123 253.964,585.597 C253.708,585.177 253.161,585.249 252.875,585.137 C246.79,582.768 240.14,584.346 234.046,586.064 C232.515,585.484 230.871,585.636 229.406,584.297 C229.406,584.297 232.877,575.954 232.877,575.954 C234.29,572.558 235.587,570.125 239.026,570.141 Z " fill="rgb(31,65,62)"/>
<path d="M358.791,570.316 C360.002,570.331 361.367,572.594 361.053,573.646 C361.053,573.646 359.798,577.852 359.798,577.852 C358.528,582.104 357.799,585.169 353.747,585.753 C351.92,585.408 348.607,584.691 346.899,585.292 C347.667,583.139 345.784,582.585 345.165,581.807 C341.61,577.331 337.521,573.595 332.656,570.476 C333.178,570.135 333.621,569.998 334.004,570.002 C334.004,570.002 358.791,570.316 358.791,570.316 Z " fill="rgb(32,68,65)"/>
<path d="M327.885,568.324 C327.885,568.324 312.154,568.893 312.154,568.893 C312.154,568.893 302.168,568.799 302.168,568.799 C300.808,566.962 302.013,560.417 304.853,560.401 C304.853,560.401 330.463,560.261 330.463,560.261 C330.904,563.632 329.861,566.433 327.885,568.324 Z " fill="rgb(29,65,63)"/>
<path d="M346.899,585.292 C331.185,590.82 316.902,600.4 303.13,611.137 C301.144,612.685 299.353,614.751 296.526,612.627 C308.201,600.915 321.361,591.468 337.028,585.87 C337.028,585.87 345.866,584.062 345.866,584.062 C345.873,583.397 344.843,582.29 345.165,581.807 C345.784,582.585 347.667,583.139 346.899,585.292 Z " fill="rgb(233,160,120)"/>
<path d="M300.992,570.098 C300.992,570.098 312.3,570.343 312.3,570.343 C307.999,572.067 303.916,574.175 300.251,577.031 C299.414,576.744 298.738,576.823 298.042,576.961 C289.978,569.079 277.15,570.779 266.951,577.235 C266.45,574.177 268.378,570.349 271.868,570.282 C277.981,570.163 283.692,569.318 289.37,570.6 C293.213,571.468 297.215,570.104 300.992,570.098 Z " fill="rgb(32,65,65)"/>
<path d="M298.042,576.961 C298.738,576.823 299.414,576.744 300.251,577.031 C289.068,585.747 277.619,594.434 266.93,605.186 C265.638,606.486 263.343,604.541 264.709,603.092 C273.024,594.273 290.253,578.501 298.042,576.961 Z " fill="rgb(233,156,116)"/>
<path d="M392.103,605.08 C392.929,605.041 393.563,605.238 393.9,605.699 C394.228,606.146 394.525,607.271 394.414,607.984 C394.414,607.984 392.435,620.694 392.435,620.694 C392.206,622.162 389.127,622.776 388.05,622.732 C390.8,616.521 386.464,609.764 382.046,605.301 C382.046,605.301 392.103,605.08 392.103,605.08 Z " fill="rgb(29,68,63)"/>
<path d="M361.888,586.776 C361.888,586.776 373.926,587.035 373.926,587.035 C375.467,587.513 376.05,589.065 375.611,590.893 C375.611,590.893 373.896,597.456 373.896,597.456 C373.896,597.456 360.179,588.69 360.179,588.69 C358.785,587.8 356.696,587.812 356.204,586.216 C356.204,586.216 361.888,586.776 361.888,586.776 Z " fill="rgb(31,69,67)"/>
<path d="M253.964,585.597 C254.275,587.47 253.128,589.193 251.694,590.693 C251.694,590.693 236.873,606.201 236.873,606.201 C234.999,608.162 234.237,611.306 230.336,611.385 C231.203,607.539 234.203,606.637 235.824,603.984 C240.695,596.013 247.777,591.289 252.875,585.137 C253.161,585.249 253.708,585.177 253.964,585.597 Z " fill="rgb(235,154,113)"/>
<path d="M382.891,585.198 C383.298,585.745 383.843,586.256 383.864,586.942 C382.153,586.93 380.638,588.279 380.379,590.313 C380.379,590.313 378.631,601.342 378.631,601.342 C377.076,600.884 375.284,598.343 373.896,597.456 C373.896,597.456 375.611,590.893 375.611,590.893 C376.05,589.065 375.467,587.513 373.926,587.035 C374.021,586.256 374.674,585.753 375.06,585.162 C375.06,585.162 382.891,585.198 382.891,585.198 Z " fill="rgb(178,190,203)"/>
<path d="M360.273,625.651 C355.143,625.676 349.923,624.951 344.828,625.897 C344.828,625.897 352.251,620.559 352.251,620.559 C354.163,623.753 357.98,624.11 360.273,625.651 Z " fill="rgb(179,196,201)"/>
<path d="M329.754,646.766 C328.597,646.357 327.161,646.695 325.605,646.691 C327.592,643.322 329.77,640.394 332.665,637.625 C332.068,640.854 331.91,644.376 329.754,646.766 Z " fill="rgb(27,65,65)"/>
<path d="M392.053,602.982 C392.053,602.982 392.103,605.08 392.103,605.08 C392.103,605.08 382.046,605.301 382.046,605.301 C381.894,604.614 381.29,603.431 380.792,603.09 C380.792,603.09 392.053,602.982 392.053,602.982 Z " fill="rgb(146,169,177)"/>
<path d="M312.154,568.893 C312.138,569.261 312.082,569.68 312.3,570.343 C312.3,570.343 300.992,570.098 300.992,570.098 C300.803,569.351 301.431,568.793 302.168,568.799 C302.168,568.799 312.154,568.893 312.154,568.893 Z " fill="rgb(169,192,198)"/>
<path d="M574.346,714.367 C574.346,714.367 337.505,713.635 337.505,713.635 C337.505,713.635 363.384,688.545 363.384,688.545 C363.384,688.545 367.823,684.649 367.823,684.649 C365.231,695.846 361.076,703.794 369.155,703.793 C369.155,703.793 540.599,703.769 540.599,703.769 C543.892,703.768 546.07,701.033 545.566,698.157 C545.566,698.157 543.25,682.805 543.25,682.805 C552.301,692.18 565.944,702.596 574.346,714.367 Z " fill="rgb(169,183,198)"/>
<path d="M709.626,548.087 C709.626,548.087 702.388,560.226 702.388,560.226 C702.388,560.226 684.773,560.438 684.773,560.438 C685.067,564.667 687.424,566.803 689.102,569.871 C689.102,569.871 674.939,570.107 674.939,570.107 C673.56,570.13 669.711,570.017 669.725,571.925 C669.761,576.976 672.729,581.265 674.779,585.027 C674.955,585.351 674.978,585.7 674.934,585.935 C674.934,585.935 668.448,585.211 668.448,585.211 C668.416,579.882 666.05,574.557 663.063,570.186 C663.063,570.186 650.009,570.183 650.009,570.183 C650.199,569.345 649.65,568.897 648.903,568.892 C650.907,567.171 649.834,565.398 649.15,563.482 C648.508,561.687 647.4,560.007 645.052,560.023 C645.052,560.023 621.068,560.192 621.068,560.192 C620.015,563.717 622.23,568.723 625.912,568.746 C625.912,568.746 626.024,570.263 626.024,570.263 C626.024,570.263 611.755,569.842 611.755,569.842 C613.571,567.979 615.622,568.564 618.096,568.022 C618.342,564.802 617.045,562.264 615.086,559.998 C615.086,559.998 588.557,560.233 588.557,560.233 C587.676,564.268 589.517,567.187 592.022,569.225 C592.26,569.699 591.851,570.171 591.508,570.151 C590.943,570.118 590.402,570.237 590.06,570.351 C590.06,570.351 578.828,570.879 578.828,570.879 C576.7,571.053 577.352,575.115 578.337,576.264 C577.828,576.73 577.061,577.771 576.138,578.065 C576.168,579.588 575.508,579.589 575.022,580.223 C574.705,576.814 574.454,571.478 570.829,570.427 C571.73,570.251 572.229,569.548 572.004,568.799 C572.004,568.799 585.405,568.491 585.405,568.491 C585.967,565.98 585.127,561.413 582.75,560.358 C582.75,560.358 557.168,560.162 557.168,560.162 C555.845,563.586 557.033,567.514 560.008,568.926 C560.008,568.926 559.998,570.238 559.998,570.238 C559.998,570.238 545.827,570.934 545.827,570.934 C543.482,571.05 544.754,581.482 548.013,584.941 C547.834,586.277 546.565,586.219 545.721,586.536 C544.523,586.195 542.304,586.291 541.058,586.598 C540.922,586.025 540.875,585.328 541.05,584.973 C541.981,583.088 540.676,572.634 537.831,570.433 C537.994,569.856 538.034,569.326 538.028,568.766 C538.028,568.766 552.377,568.173 552.377,568.173 C554.447,567.592 553.248,560.415 550.772,560.41 C550.772,560.41 525.217,560.36 525.217,560.36 C523.01,562.129 524.558,568.162 527.349,568.877 C527.349,568.877 525.555,569.012 525.555,569.012 C525.18,569.04 524.755,569.588 525.005,570.2 C525.005,570.2 512.299,570.493 512.299,570.493 C510.396,570.536 509.67,573.278 509.935,574.925 C509.935,574.925 511.49,584.832 511.49,584.832 C510.402,584.8 509.218,585.948 508.999,586.878 C508.999,586.878 504.031,586.989 504.031,586.989 C504.189,586.294 504.822,585.483 505.272,585.064 C507.349,583.133 507.063,570.519 502.687,570.446 C502.687,570.446 489.009,570.218 489.009,570.218 C489.224,569.458 488.761,568.855 487.993,568.848 C490.48,567.992 490.948,560.478 488.224,560.479 C488.224,560.479 463.22,560.49 463.22,560.49 C461.154,560.491 460.894,567.928 462.857,568.034 C462.857,568.034 475.99,568.745 475.99,568.745 C475.99,568.745 476.113,570.349 476.113,570.349 C473.236,572.137 473.477,582.091 476.074,584.916 C475.991,585.736 475.357,586.232 474.956,586.777 C473.621,586.752 472.458,586.726 471.112,586.76 C470.206,586.097 468.529,586.016 467.825,585.081 C471.576,582.179 471.148,570.678 466.646,570.529 C466.646,570.529 456.989,570.21 456.989,570.21 C457.193,569.365 456.67,568.854 455.917,568.845 C458.341,568.294 459.14,561.074 456.705,560.691 C447.865,559.302 439.047,560.092 430.142,560.328 C428.175,561.04 427.483,566.794 428.982,567.997 C432.551,569.57 437.603,568.648 440.961,568.684 C440.961,568.684 441.136,570.243 441.136,570.243 C438.279,570.249 437.151,578.955 439.137,585.102 C437.518,585.083 434.644,587.399 432.782,585.139 C433.92,583.755 433.933,582.195 433.951,580.872 C433.951,580.872 434.08,570.994 434.08,570.994 C430.04,569.886 426.497,570.239 422.994,570.248 C422.994,570.248 422.888,568.66 422.888,568.66 C424.628,566.548 425.377,563.687 424.405,560.256 C424.405,560.256 398.811,560.38 398.811,560.38 C396.509,560.391 395.74,566.978 397.426,568.335 C397.426,568.335 405.008,568.788 405.008,568.788 C405.008,568.788 405.062,570.294 405.062,570.294 C404.176,570.297 402.771,571.595 402.6,572.68 C402.6,572.68 400.97,583.009 400.97,583.009 C400.857,583.728 401.248,584.459 401.552,584.828 C401.755,585.074 402.232,585.165 402.619,584.978 C402.619,584.978 402.755,586.823 402.755,586.823 C400.248,586.775 397.607,586.469 395.108,586.76 C394.654,586.264 394.03,585.76 393.967,584.99 C396.961,584.438 398.288,575.945 397.062,570.815 C397.062,570.815 391.986,570.158 391.986,570.158 C392.075,569.563 391.944,568.931 391.572,568.366 C393.396,566.336 394.34,563.741 393.336,560.248 C393.336,560.248 368.284,560.537 368.284,560.537 C365.121,560.574 364.658,567.551 367.18,568.646 C365.461,568.91 366.216,570.453 365.924,571.177 C364.379,575.002 362.854,580.431 363.252,584.725 C363.326,585.521 362.263,586.328 361.888,586.776 C361.888,586.776 356.204,586.216 356.204,586.216 C356.204,586.216 353.747,585.753 353.747,585.753 C357.799,585.169 358.528,582.104 359.798,577.852 C359.798,577.852 361.053,573.646 361.053,573.646 C361.367,572.594 360.002,570.331 358.791,570.316 C359.744,570.223 360.347,569.464 359.91,568.561 C362.19,567.342 363.96,563.191 362.233,560.418 C362.233,560.418 336.913,560.288 336.913,560.288 C333.732,560.272 332.773,565.903 333.854,567.955 C334.228,568.665 334.067,569.441 334.004,570.002 C333.621,569.998 333.178,570.135 332.656,570.476 C331.456,569.706 328.919,569.855 327.885,568.324 C329.861,566.433 330.904,563.632 330.463,560.261 C330.463,560.261 304.853,560.401 304.853,560.401 C302.013,560.417 300.808,566.962 302.168,568.799 C301.431,568.793 300.803,569.351 300.992,570.098 C297.215,570.104 293.213,571.468 289.37,570.6 C283.692,569.318 277.981,570.163 271.868,570.282 C268.378,570.349 266.45,574.177 266.951,577.235 C266.951,577.235 262.277,580.193 262.277,580.193 C261.103,580.936 260.801,581.768 259.815,582.101 C259.815,582.101 263.848,572.935 263.848,572.935 C264.298,571.911 262.456,570.598 261.891,570.499 C261.891,570.499 261.93,568.837 261.93,568.837 C264.602,568.83 265.591,568.183 266.907,566.23 C267.758,564.967 269.443,560.362 266.966,560.373 C266.966,560.373 242.092,560.481 242.092,560.481 C239.446,560.493 237.352,566.24 238.736,567.941 C239.105,568.395 239.095,569.641 239.026,570.141 C235.587,570.125 234.29,572.558 232.877,575.954 C232.877,575.954 229.406,584.297 229.406,584.297 C230.871,585.636 232.515,585.484 234.046,586.064 C234.012,586.47 233.825,586.839 233.488,586.972 C233.488,586.972 232.125,587.512 232.125,587.512 C232.125,587.512 192.324,586.807 192.324,586.807 C192.324,586.807 184.087,601.899 184.087,601.899 C183.767,602.485 183.889,603.332 183.903,603.972 C180.861,605.557 180.114,609.199 178.573,611.855 C178.573,611.855 173.809,620.068 173.809,620.068 C173.809,620.068 163.367,638.366 163.367,638.366 C162.775,639.402 163.198,642.081 165.122,642.087 C165.122,642.087 191.751,642.002 191.751,642.002 C183.375,658.672 175.228,675.396 168.261,693.067 C168.261,693.067 160.97,705.681 160.97,705.681 C152.595,704.955 144.259,707.764 138.238,714.122 C138.238,714.122 115.016,714.201 115.016,714.201 C109.717,714.173 104.3,713.022 100.319,709.643 C98.9274,708.462 98.2892,707.416 96.4412,708.136 C96.2779,705.699 95.6825,703.146 97.032,700.892 C97.032,700.892 134.809,637.785 134.809,637.785 C134.809,637.785 185.296,554.404 185.296,554.404 C187.205,551.251 191.899,550.299 194.796,548.789 C194.796,548.789 193.974,546.941 193.974,546.941 C195.089,547.771 195.509,548.174 196.936,548.167 C196.936,548.167 243.246,547.944 243.246,547.944 C243.246,547.944 677.725,547.935 677.725,547.935 C677.725,547.935 709.626,548.087 709.626,548.087 Z M204.847,567.956 C205.164,568.442 205.075,569.585 205.335,570.135 C204.28,570.127 201.808,570.351 201.306,571.199 C201.306,571.199 194.923,581.978 194.923,581.978 C191.496,587.766 209.073,583.732 223.1,585.39 C228.23,578.476 232.405,570.349 227.798,570.313 C228.722,570.26 229.238,569.541 228.927,568.828 C231.357,568.819 232.684,568.262 234.085,566.469 C235.093,565.178 236.571,562.319 235.358,560.5 C235.358,560.5 212.006,560.028 212.006,560.028 C209.592,559.979 207.485,560.57 205.976,562.394 C204.93,563.658 203.144,566.186 204.847,567.956 Z M296.092,568.098 C298.413,567.637 300.118,560.838 298.027,560.46 C290.112,559.817 281.885,559.59 274.325,560.517 C271.385,560.878 270.231,565.968 270.608,568.354 C279.297,569.106 287.778,569.749 296.092,568.098 Z M520.312,568.475 C521.842,566.577 521.399,560.674 518.811,560.452 C510.633,559.75 502.437,559.529 494.268,560.621 C492.043,560.944 492.575,568.402 495.202,568.409 C495.202,568.409 520.312,568.475 520.312,568.475 Z M682.854,568.485 C683.207,565.388 681.42,560.927 679.013,560.363 C679.013,560.363 652.51,560.287 652.51,560.287 C651.664,563.45 653.895,568.534 656.776,568.529 C656.776,568.529 682.854,568.485 682.854,568.485 Z " fill="rgb(169,183,197)"/>
<path d="M588.377,646.893 C592.281,654.685 598.731,668.875 595.895,672.563 C592.307,677.229 577.258,663.115 570.577,658.413 C570.577,658.413 554.764,647.285 554.764,647.285 C554.735,646.73 556.391,645.477 556.279,644.956 C556.279,644.956 552.957,629.351 552.957,629.351 C552.957,629.351 557.122,626.826 557.122,626.826 C557.122,626.826 560.188,641.159 560.188,641.159 C560.552,642.784 560.988,646.477 563.299,646.515 C563.299,646.515 588.377,646.893 588.377,646.893 Z " fill="rgb(166,182,196)"/>
<path d="M717.263,637.467 C716.121,635.787 714.893,633.852 714.236,631.843 C714.236,631.843 712.684,627.097 712.684,627.097 C712.113,625.353 715.544,624.991 716.958,624.988 C716.958,624.988 747.77,624.914 747.77,624.914 C751.716,630.093 756.012,639.196 755.535,639.965 C755.176,640.542 754.05,642.112 752.965,642.115 C752.965,642.115 721.941,642.207 721.941,642.207 C720.123,640.585 718.358,639.079 717.263,637.467 Z " fill="rgb(42,76,75)"/>
<path d="M530.567,625.124 C535.661,632.694 545.047,634.146 552.957,629.351 C552.957,629.351 556.279,644.956 556.279,644.956 C556.391,645.477 554.735,646.73 554.764,647.285 C547.639,642.271 539.182,643.91 532,646.837 C529.421,647.887 525.529,646.621 522.577,646.107 C521.301,639.912 519.675,633.367 520.116,627.297 C522.02,624.314 527.352,625.148 530.567,625.124 Z " fill="rgb(24,59,54)"/>
<path d="M588.377,646.893 C588.377,646.893 563.299,646.515 563.299,646.515 C560.988,646.477 560.552,642.784 560.188,641.159 C560.188,641.159 557.122,626.826 557.122,626.826 C561.228,624.336 568.482,624.055 573.359,628.663 C579.271,634.247 584.796,639.746 588.377,646.893 Z " fill="rgb(21,57,51)"/>
<path d="M559.998,570.238 C563.435,570.069 567.561,569.479 570.829,570.427 C574.454,571.478 574.705,576.814 575.022,580.223 C575.022,580.223 571.254,585.137 571.254,585.137 C569.433,586.007 567.714,585.258 566.068,585.231 C566.068,585.231 548.013,584.941 548.013,584.941 C544.754,581.482 543.482,571.05 545.827,570.934 C545.827,570.934 559.998,570.238 559.998,570.238 Z " fill="rgb(30,64,61)"/>
<path d="M740.178,608.756 C741.044,610.404 741.898,611.657 742.562,614.392 C743.024,616.294 746.62,618.3 745.509,621.858 C745.509,621.858 710.079,622.159 710.079,622.159 C709.369,622.165 708.964,622.458 708.65,623.16 C708.65,623.16 704.63,616.214 704.63,616.214 C708.631,616.209 711.48,614.086 714.801,611.593 C712.389,611.776 712.268,609.376 714.725,609.803 C715.617,608.899 716.33,609.553 716.785,609.762 C717.569,610.12 718.672,609.626 718.047,608.526 C717.542,607.638 717.704,607.746 716.836,607.103 C716.836,607.103 724.24,611.618 724.24,611.618 C724.24,611.618 741.373,612.634 741.373,612.634 C740.27,610.621 739.868,610.159 740.178,608.756 Z " fill="rgb(91,115,122)"/>
<path d="M626.024,570.263 C626.024,570.263 630.735,570.536 630.735,570.536 C631.969,570.607 632.817,572.303 633.081,572.95 C626.982,572.521 620.581,574.419 616.11,578.987 C616.11,578.987 607.931,573.894 607.931,573.894 C607.713,573.317 607.433,571.182 608.447,570.658 C609.105,570.318 610.858,571.217 611.387,568.427 C611.387,568.427 594.946,567.864 594.946,567.864 C593.883,567.828 592.938,567.983 593.01,569.124 C593.01,569.124 592.022,569.225 592.022,569.225 C589.517,567.187 587.676,564.268 588.557,560.233 C588.557,560.233 615.086,559.998 615.086,559.998 C617.045,562.264 618.342,564.802 618.096,568.022 C615.622,568.564 613.571,567.979 611.755,569.842 C611.755,569.842 626.024,570.263 626.024,570.263 Z " fill="rgb(29,63,60)"/>
<path d="M650.009,570.183 C650.009,570.183 663.063,570.186 663.063,570.186 C666.05,574.557 668.416,579.882 668.448,585.211 C664.76,584.799 659.153,586.194 655.274,584.647 C649.405,580.186 644.282,575.141 637.074,573.921 C636.007,573.364 635.892,570.853 637.227,570.638 C641.851,569.894 645.937,570.183 650.009,570.183 Z " fill="rgb(31,66,63)"/>
<path d="M545.721,586.536 C551.904,588.295 558.17,584.304 560.006,589.039 C548.847,594.533 540.682,603.085 539.182,602.987 C539.182,602.987 533.029,602.581 533.029,602.581 C533.029,602.581 530.377,592.017 530.377,592.017 C530.035,590.655 530.292,589.426 530.726,588.41 C531.109,587.515 531.796,586.951 532.997,586.97 C535.689,587.012 538.387,587.256 541.058,586.598 C542.304,586.291 544.523,586.195 545.721,586.536 Z " fill="rgb(35,69,68)"/>
<path d="M536.282,607.058 C532.932,611.035 529.406,615.499 529.416,620.704 C529.304,621.145 528.728,622.414 528.279,622.404 C528.279,622.404 525.936,622.356 525.936,622.356 C523.492,622.305 520.39,622.998 518.035,621.797 C515.63,620.569 515.42,617.144 515.235,615.143 C515.235,615.143 514.944,612.004 514.944,612.004 C514.746,609.877 514.027,607.435 514.938,605.139 C514.938,605.139 533.027,604.724 533.027,604.724 C533.027,604.724 535.29,605.243 535.29,605.243 C535.838,605.368 536.415,605.849 536.282,607.058 Z " fill="rgb(31,68,65)"/>
<path d="M586.027,590.096 C600.735,597.24 621.715,614.379 615.56,614.093 C614.897,614.062 613.919,613.986 612.836,613.15 C599.765,603.062 586.806,593.981 571.058,587.241 C576.581,585.228 581.393,587.846 586.027,590.096 Z " fill="rgb(234,158,116)"/>
<path d="M716.836,607.103 C717.704,607.746 717.542,607.638 718.047,608.526 C718.672,609.626 717.569,610.12 716.785,609.762 C716.33,609.553 715.617,608.899 714.725,609.803 C712.268,609.376 712.389,611.776 714.801,611.593 C711.48,614.086 708.631,616.209 704.63,616.214 C704.63,616.214 696.897,605.021 696.897,605.021 C700.121,604.512 703.262,605.201 706.309,604.213 C709.634,603.136 713.359,606.359 716.836,607.103 Z " fill="rgb(99,126,133)"/>
<path d="M648.156,607.386 C637.885,598.254 628.863,588.968 617.989,581.088 C617.189,580.509 617.011,580.196 617.01,579.641 C617.01,579.036 617.211,578.64 618.053,578.404 C618.563,578.261 618.957,578.367 620.042,579.05 C636.242,589.254 649.492,605.357 650.027,605.499 C650.759,605.693 649.168,608.286 648.156,607.386 Z " fill="rgb(237,163,122)"/>
<path d="M698.034,585.027 C698.034,585.027 698.916,586.968 698.916,586.968 C698.118,586.964 697.473,587.071 696.936,587.477 C695.952,588.22 695.954,589.354 696.504,590.595 C696.504,590.595 700.144,598.817 700.144,598.817 C701.364,601.572 703.398,603.323 706.309,604.213 C703.262,605.201 700.121,604.512 696.897,605.021 C696.666,605.068 696,604.991 695.963,604.501 C695.933,604.112 695.921,603.678 695.667,603.406 C696.886,603.067 696.603,602.193 696.546,601.723 C696.475,601.129 696.272,600.768 695.946,600.058 C695.946,600.058 693.089,593.823 693.089,593.823 C692.116,591.701 691.129,587.466 688.841,587.398 C688.841,587.398 689.041,585.115 689.041,585.115 C689.041,585.115 698.034,585.027 698.034,585.027 Z " fill="rgb(171,186,199)"/>
<path d="M688.841,587.398 C691.129,587.466 692.116,591.701 693.089,593.823 C693.089,593.823 695.946,600.058 695.946,600.058 C696.272,600.768 696.475,601.129 696.546,601.723 C696.603,602.193 696.886,603.067 695.667,603.406 C689.916,597.271 684.219,591.101 676.702,587.273 C676.702,587.273 688.841,587.398 688.841,587.398 Z " fill="rgb(24,61,58)"/>
<path d="M681.437,612.063 C672.711,606.603 668.054,597.84 660.786,591.18 C659.933,590.398 660.015,588.596 661.448,587.776 C668.232,595.159 676.434,601.765 681.437,612.063 Z " fill="rgb(232,152,109)"/>
<path d="M566.068,585.231 C566.068,585.231 563.946,587.907 563.946,587.907 C562.621,587.965 561.222,588.44 560.006,589.039 C558.17,584.304 551.904,588.295 545.721,586.536 C546.565,586.219 547.834,586.277 548.013,584.941 C548.013,584.941 566.068,585.231 566.068,585.231 Z " fill="rgb(128,152,157)"/>
<path d="M607.931,573.894 C607.467,573.651 606.346,573.708 606.019,573.047 C606.397,571.431 605.341,570.443 604.176,570.418 C602.989,570.393 600.951,570.666 600.182,569.927 C598.228,568.051 595.214,568.9 593.01,569.124 C592.938,567.983 593.883,567.828 594.946,567.864 C594.946,567.864 611.387,568.427 611.387,568.427 C610.858,571.217 609.105,570.318 608.447,570.658 C607.433,571.182 607.713,573.317 607.931,573.894 Z " fill="rgb(140,158,162)"/>
<path d="M590.06,570.351 C585.993,571.705 581.33,573.52 578.337,576.264 C577.352,575.115 576.7,571.053 578.828,570.879 C578.828,570.879 590.06,570.351 590.06,570.351 Z " fill="rgb(30,56,55)"/>
<path d="M689.041,585.115 C689.041,585.115 688.841,587.398 688.841,587.398 C688.841,587.398 676.702,587.273 676.702,587.273 C676.375,587.106 675.954,587.038 675.508,586.996 C675.034,586.95 674.725,586.416 674.934,585.935 C674.978,585.7 674.955,585.351 674.779,585.027 C674.779,585.027 689.041,585.115 689.041,585.115 Z " fill="rgb(143,165,168)"/>
<path d="M571.254,585.137 C570.832,585.688 570.914,587.601 569.406,587.667 C569.406,587.667 563.946,587.907 563.946,587.907 C563.946,587.907 566.068,585.231 566.068,585.231 C567.714,585.258 569.433,586.007 571.254,585.137 Z " fill="rgb(152,162,165)"/>
<path d="M606.019,573.047 C604.135,572.734 602.192,571.961 599.886,570.924 C598.677,571.484 598.444,569.574 600.182,569.927 C600.951,570.666 602.989,570.393 604.176,570.418 C605.341,570.443 606.397,571.431 606.019,573.047 Z " fill="rgb(81,100,101)"/>
<path d="M821.046,701.551 C820.918,702.476 820.541,703.716 820.656,704.534 C816.665,713.029 806.65,714.484 796.003,714.464 C796.003,714.464 771.096,714.503 771.096,714.503 C764.3,706.823 756.135,702.023 745.914,702.885 C745.914,702.885 739.994,690.976 739.994,690.976 C734.32,675.835 728.201,661.498 720.894,647.093 C720.894,647.093 719.069,641.145 719.069,641.145 C718.667,639.833 716.775,638.708 717.263,637.467 C718.358,639.079 720.123,640.585 721.941,642.207 C721.941,642.207 752.965,642.115 752.965,642.115 C754.05,642.112 755.176,640.542 755.535,639.965 C756.012,639.196 751.716,630.093 747.77,624.914 C747.77,624.914 716.958,624.988 716.958,624.988 C715.544,624.991 712.113,625.353 712.684,627.097 C712.684,627.097 714.236,631.843 714.236,631.843 C712.448,632.103 712.147,629.442 711.607,628.473 C711.607,628.473 708.65,623.16 708.65,623.16 C708.964,622.458 709.369,622.165 710.079,622.159 C710.079,622.159 745.509,621.858 745.509,621.858 C746.62,618.3 743.024,616.294 742.562,614.392 C741.898,611.657 741.044,610.404 740.178,608.756 C740.178,608.756 728.789,587.084 728.789,587.084 C728.789,587.084 711.003,587.022 711.003,587.022 C711.003,587.022 715.01,584.992 715.01,584.992 C718.528,585.039 722.251,585.501 726.398,583.947 C724.899,579.103 722.483,575.225 720.018,570.953 C720.018,570.953 714.843,570.126 714.843,570.126 C715.152,569.562 715.826,568.747 715.961,568.087 C716.382,568.139 717.145,568.209 717.496,567.992 C718.184,567.569 718.179,566.695 717.992,565.996 C717.469,564.051 719.015,562.684 720.05,561.114 C720.05,561.114 727.672,549.555 727.672,549.555 C731.105,550.191 734.881,551.981 736.845,555.39 C736.845,555.39 821.046,701.551 821.046,701.551 Z " fill="rgb(168,182,197)"/>
<path d="M648.903,568.892 C649.65,568.897 650.199,569.345 650.009,570.183 C645.937,570.183 641.851,569.894 637.227,570.638 C635.892,570.853 636.007,573.364 637.074,573.921 C635.834,573.711 634.617,572.571 633.081,572.95 C632.817,572.303 631.969,570.607 630.735,570.536 C630.735,570.536 626.024,570.263 626.024,570.263 C626.024,570.263 625.912,568.746 625.912,568.746 C625.912,568.746 648.903,568.892 648.903,568.892 Z " fill="rgb(170,188,197)"/>
<path d="M419.929,585.193 C420.319,585.746 420.984,586.239 420.974,587.142 C418.013,587.134 415.935,599.552 420.065,602.929 C419.996,603.751 419.284,604.27 418.974,604.897 C418.974,604.897 400.117,605.196 400.117,605.196 C397.443,612.998 396.298,622.406 400.978,622.413 C400.978,622.413 428.051,622.454 428.051,622.454 C429.443,622.457 431.413,620.993 431.464,619.753 C431.464,619.753 431.939,607.997 431.939,607.997 C432.005,606.373 431.068,605.255 430.022,605.018 C430.022,605.018 429.019,602.908 429.019,602.908 C429.019,602.908 449.399,602.166 449.399,602.166 C453.002,598.179 451.94,587.23 448.945,587.222 C448.945,587.222 449.035,585.214 449.035,585.214 C449.035,585.214 456.967,585.255 456.967,585.255 C457.393,585.775 458.002,586.311 458.039,587.098 C456.411,587.14 455.907,589.212 455.997,590.961 C455.997,590.961 456.6,602.693 456.6,602.693 C456.6,602.693 488.768,602.723 488.768,602.723 C490.034,597.69 489.45,592.533 488.097,588.034 C487.83,587.147 487.955,586.047 488.082,585.157 C488.082,585.157 493.934,585.149 493.934,585.149 C495.169,586.31 494.743,586.754 493.997,588.025 C492.782,590.097 493.606,599.997 496.175,602.508 C496.175,602.508 525.81,602.523 525.81,602.523 C528.955,602.524 526.587,587.286 523.012,587.203 C523.012,587.203 523.054,585.165 523.054,585.165 C523.054,585.165 529.917,585.171 529.917,585.171 C529.917,585.171 532.997,586.97 532.997,586.97 C531.796,586.951 531.109,587.515 530.726,588.41 C530.292,589.426 530.035,590.655 530.377,592.017 C530.377,592.017 533.029,602.581 533.029,602.581 C533.029,602.581 539.182,602.987 539.182,602.987 C538.567,604.685 537.385,605.749 536.282,607.058 C536.415,605.849 535.838,605.368 535.29,605.243 C535.29,605.243 533.027,604.724 533.027,604.724 C533.027,604.724 514.938,605.139 514.938,605.139 C514.027,607.435 514.746,609.877 514.944,612.004 C513.903,611.803 512.446,611.608 511.653,612.957 C510.797,611.002 511.269,606.369 508.825,605.369 C508.825,605.369 478.298,605.132 478.298,605.132 C475.686,605.112 475.926,616.167 477.579,620.543 C478.376,622.652 481.92,622.533 483.929,622.504 C483.929,622.504 511.276,622.113 511.276,622.113 C512.365,619.642 511.829,616.865 511.863,614.374 C512.939,614.886 513.662,615.863 515.235,615.143 C515.42,617.144 515.63,620.569 518.035,621.797 C520.39,622.998 523.492,622.305 525.936,622.356 C525.936,622.356 528.279,622.404 528.279,622.404 C528.728,622.414 529.304,621.145 529.416,620.704 C529.419,622.2 529.78,623.689 530.567,625.124 C527.352,625.148 522.02,624.314 520.116,627.297 C519.675,633.367 521.301,639.912 522.577,646.107 C525.529,646.621 529.421,647.887 532,646.837 C530.134,649.657 527.694,652.468 527.132,655.812 C527.132,655.812 387.014,655.774 387.014,655.774 C386.475,650.477 382.889,649.326 382.67,646.804 C382.67,646.804 513.849,646.723 513.849,646.723 C516.389,646.721 516.874,644.162 516.635,642.388 C516.635,642.388 515.085,630.916 515.085,630.916 C514.769,628.58 513.999,625.7 510.904,625.688 C510.904,625.688 386.713,625.219 386.713,625.219 C386.713,625.219 388.05,622.732 388.05,622.732 C389.127,622.776 392.206,622.162 392.435,620.694 C392.435,620.694 394.414,607.984 394.414,607.984 C394.525,607.271 394.228,606.146 393.9,605.699 C393.563,605.238 392.929,605.041 392.103,605.08 C392.103,605.08 392.053,602.982 392.053,602.982 C392.053,602.982 411.04,602.6 411.04,602.6 C413.415,602.552 415.564,590.303 411.99,587.08 C411.99,587.08 412.085,585.199 412.085,585.199 C414.678,585.251 417.321,585.245 419.929,585.193 Z M472.349,619.698 C472.349,619.698 472.116,610.004 472.116,610.004 C472.038,606.778 470.267,604.852 466.984,604.831 C466.984,604.831 442.012,604.673 442.012,604.673 C440.019,604.66 438.526,605.113 437.595,606.255 C436.292,607.854 435.498,617.823 437.891,622.493 C437.891,622.493 469.992,622.334 469.992,622.334 C470.867,622.33 472.373,620.669 472.349,619.698 Z " fill="rgb(172,186,200)"/>
<path d="M785.037,730.256 C785.037,730.256 771.096,714.503 771.096,714.503 C771.096,714.503 796.003,714.464 796.003,714.464 C806.65,714.484 816.665,713.029 820.656,704.534 C822.415,717.039 813.085,727.654 800.202,729.396 C800.202,729.396 785.037,730.256 785.037,730.256 Z " fill="rgb(104,128,137)"/>
<path d="M138.238,714.122 C138.238,714.122 123.118,730.087 123.118,730.087 C108.779,729.478 97.3867,722.25 96.4412,708.136 C98.2892,707.416 98.9274,708.462 100.319,709.643 C104.3,713.022 109.717,714.173 115.016,714.201 C115.016,714.201 138.238,714.122 138.238,714.122 Z " fill="rgb(107,130,139)"/>
<path d="M471.112,586.76 C472.458,586.726 473.621,586.752 474.956,586.777 C474.956,586.777 486.759,587 486.759,587 C486.978,587.949 487.592,588.122 488.097,588.034 C489.45,592.533 490.034,597.69 488.768,602.723 C488.768,602.723 456.6,602.693 456.6,602.693 C456.6,602.693 455.997,590.961 455.997,590.961 C455.907,589.212 456.411,587.14 458.039,587.098 C458.039,587.098 471.112,586.76 471.112,586.76 Z " fill="rgb(33,66,63)"/>
<path d="M504.031,586.989 C504.031,586.989 508.999,586.878 508.999,586.878 C508.999,586.878 523.012,587.203 523.012,587.203 C526.587,587.286 528.955,602.524 525.81,602.523 C525.81,602.523 496.175,602.508 496.175,602.508 C493.606,599.997 492.782,590.097 493.997,588.025 C496.905,586.052 500.716,587.064 504.031,586.989 Z " fill="rgb(31,64,61)"/>
<path d="M702.388,560.226 C702.388,560.226 697.881,568.711 697.881,568.711 C697.881,568.711 689.965,569.359 689.965,569.359 C689.988,569.477 690.146,569.805 690.498,570.002 C690.498,570.002 697.147,570.126 697.147,570.126 C696.02,572.465 694.545,575.162 695.012,578.365 C695.382,580.9 697.575,582.988 699.997,584.85 C699.379,584.848 698.639,585.021 698.034,585.027 C698.034,585.027 689.041,585.115 689.041,585.115 C689.041,585.115 674.779,585.027 674.779,585.027 C672.729,581.265 669.761,576.976 669.725,571.925 C669.711,570.017 673.56,570.13 674.939,570.107 C674.939,570.107 689.102,569.871 689.102,569.871 C687.424,566.803 685.067,564.667 684.773,560.438 C684.773,560.438 702.388,560.226 702.388,560.226 Z " fill="rgb(28,63,59)"/>
<path d="M391.986,570.158 C391.986,570.158 397.062,570.815 397.062,570.815 C398.288,575.945 396.961,584.438 393.967,584.99 C393.967,584.99 384.999,584.991 384.999,584.991 C384.999,584.991 382.891,585.198 382.891,585.198 C382.891,585.198 375.06,585.162 375.06,585.162 C375.06,585.162 363.252,584.725 363.252,584.725 C362.854,580.431 364.379,575.002 365.924,571.177 C366.474,571.18 367.044,570.946 367.252,569.985 C367.252,569.985 391.986,570.158 391.986,570.158 Z " fill="rgb(32,66,63)"/>
<path d="M422.994,570.248 C426.497,570.239 430.04,569.886 434.08,570.994 C434.08,570.994 433.951,580.872 433.951,580.872 C432.934,581.917 433.342,583.555 431.762,584.959 C431.762,584.959 419.929,585.193 419.929,585.193 C417.321,585.245 414.678,585.251 412.085,585.199 C412.085,585.199 402.619,584.978 402.619,584.978 C402.232,585.165 401.755,585.074 401.552,584.828 C401.248,584.459 400.857,583.728 400.97,583.009 C400.97,583.009 402.6,572.68 402.6,572.68 C402.771,571.595 404.176,570.297 405.062,570.294 C405.062,570.294 422.994,570.248 422.994,570.248 Z " fill="rgb(30,63,60)"/>
<path d="M489.009,570.218 C489.009,570.218 502.687,570.446 502.687,570.446 C507.063,570.519 507.349,583.133 505.272,585.064 C505.272,585.064 493.934,585.149 493.934,585.149 C493.934,585.149 488.082,585.157 488.082,585.157 C488.082,585.157 476.074,584.916 476.074,584.916 C473.477,582.091 473.236,572.137 476.113,570.349 C476.113,570.349 489.009,570.218 489.009,570.218 Z " fill="rgb(30,63,60)"/>
<path d="M456.989,570.21 C456.989,570.21 466.646,570.529 466.646,570.529 C471.148,570.678 471.576,582.179 467.825,585.081 C467.825,585.081 456.967,585.255 456.967,585.255 C456.967,585.255 449.035,585.214 449.035,585.214 C449.035,585.214 439.137,585.102 439.137,585.102 C437.151,578.955 438.279,570.249 441.136,570.243 C441.136,570.243 456.989,570.21 456.989,570.21 Z " fill="rgb(31,64,62)"/>
<path d="M205.335,570.135 C205.335,570.135 227.798,570.313 227.798,570.313 C232.405,570.349 228.23,578.476 223.1,585.39 C209.073,583.732 191.496,587.766 194.923,581.978 C194.923,581.978 201.306,571.199 201.306,571.199 C201.808,570.351 204.28,570.127 205.335,570.135 Z " fill="rgb(37,69,68)"/>
<path d="M525.005,570.2 C525.005,570.2 537.831,570.433 537.831,570.433 C540.676,572.634 541.981,583.088 541.05,584.973 C541.05,584.973 529.917,585.171 529.917,585.171 C529.917,585.171 523.054,585.165 523.054,585.165 C523.054,585.165 511.49,584.832 511.49,584.832 C511.49,584.832 509.935,574.925 509.935,574.925 C509.67,573.278 510.396,570.536 512.299,570.493 C512.299,570.493 525.005,570.2 525.005,570.2 Z " fill="rgb(29,63,60)"/>
<path d="M228.927,568.828 C228.927,568.828 206.43,568.905 206.43,568.905 C206.077,568.906 205.126,567.622 204.847,567.956 C203.144,566.186 204.93,563.658 205.976,562.394 C207.485,560.57 209.592,559.979 212.006,560.028 C212.006,560.028 235.358,560.5 235.358,560.5 C236.571,562.319 235.093,565.178 234.085,566.469 C232.684,568.262 231.357,568.819 228.927,568.828 Z " fill="rgb(48,80,81)"/>
<path d="M455.917,568.845 C455.917,568.845 440.961,568.684 440.961,568.684 C437.603,568.648 432.551,569.57 428.982,567.997 C427.483,566.794 428.175,561.04 430.142,560.328 C439.047,560.092 447.865,559.302 456.705,560.691 C459.14,561.074 458.341,568.294 455.917,568.845 Z " fill="rgb(29,60,58)"/>
<path d="M682.854,568.485 C682.854,568.485 656.776,568.529 656.776,568.529 C653.895,568.534 651.664,563.45 652.51,560.287 C652.51,560.287 679.013,560.363 679.013,560.363 C681.42,560.927 683.207,565.388 682.854,568.485 Z " fill="rgb(29,62,60)"/>
<path d="M261.93,568.837 C261.93,568.837 240.42,568.891 240.42,568.891 C240.045,568.892 239.023,567.604 238.736,567.941 C237.352,566.24 239.446,560.493 242.092,560.481 C242.092,560.481 266.966,560.373 266.966,560.373 C269.443,560.362 267.758,564.967 266.907,566.23 C265.591,568.183 264.602,568.83 261.93,568.837 Z " fill="rgb(32,67,64)"/>
<path d="M538.028,568.766 C538.028,568.766 527.349,568.877 527.349,568.877 C524.558,568.162 523.01,562.129 525.217,560.36 C525.217,560.36 550.772,560.41 550.772,560.41 C553.248,560.415 554.447,567.592 552.377,568.173 C552.377,568.173 538.028,568.766 538.028,568.766 Z " fill="rgb(30,64,60)"/>
<path d="M359.91,568.561 C359.91,568.561 335.474,568.894 335.474,568.894 C335.029,568.895 333.898,567.567 333.854,567.955 C332.773,565.903 333.732,560.272 336.913,560.288 C336.913,560.288 362.233,560.418 362.233,560.418 C363.96,563.191 362.19,567.342 359.91,568.561 Z " fill="rgb(29,62,59)"/>
<path d="M572.004,568.799 C572.004,568.799 560.008,568.926 560.008,568.926 C557.033,567.514 555.845,563.586 557.168,560.162 C557.168,560.162 582.75,560.358 582.75,560.358 C585.127,561.413 585.967,565.98 585.405,568.491 C585.405,568.491 572.004,568.799 572.004,568.799 Z " fill="rgb(29,60,57)"/>
<path d="M648.903,568.892 C648.903,568.892 625.912,568.746 625.912,568.746 C622.23,568.723 620.015,563.717 621.068,560.192 C621.068,560.192 645.052,560.023 645.052,560.023 C647.4,560.007 648.508,561.687 649.15,563.482 C649.834,565.398 650.907,567.171 648.903,568.892 Z " fill="rgb(31,66,63)"/>
<path d="M487.993,568.848 C487.993,568.848 475.99,568.745 475.99,568.745 C475.99,568.745 462.857,568.034 462.857,568.034 C460.894,567.928 461.154,560.491 463.22,560.49 C463.22,560.49 488.224,560.479 488.224,560.479 C490.948,560.478 490.48,567.992 487.993,568.848 Z " fill="rgb(30,64,61)"/>
<path d="M422.888,568.66 C422.888,568.66 405.008,568.788 405.008,568.788 C405.008,568.788 397.426,568.335 397.426,568.335 C395.74,566.978 396.509,560.391 398.811,560.38 C398.811,560.38 424.405,560.256 424.405,560.256 C425.377,563.687 424.628,566.548 422.888,568.66 Z " fill="rgb(31,68,65)"/>
<path d="M520.312,568.475 C520.312,568.475 495.202,568.409 495.202,568.409 C492.575,568.402 492.043,560.944 494.268,560.621 C502.437,559.529 510.633,559.75 518.811,560.452 C521.399,560.674 521.842,566.577 520.312,568.475 Z " fill="rgb(32,67,63)"/>
<path d="M391.572,568.366 C391.572,568.366 367.18,568.646 367.18,568.646 C364.658,567.551 365.121,560.574 368.284,560.537 C368.284,560.537 393.336,560.248 393.336,560.248 C394.34,563.741 393.396,566.336 391.572,568.366 Z " fill="rgb(31,65,62)"/>
<path d="M296.092,568.098 C287.778,569.749 279.297,569.106 270.608,568.354 C270.231,565.968 271.385,560.878 274.325,560.517 C281.885,559.59 290.112,559.817 298.027,560.46 C300.118,560.838 298.413,567.637 296.092,568.098 Z " fill="rgb(28,60,58)"/>
<path d="M439.137,585.102 C439.137,585.102 449.035,585.214 449.035,585.214 C449.035,585.214 448.945,587.222 448.945,587.222 C448.945,587.222 420.974,587.142 420.974,587.142 C420.984,586.239 420.319,585.746 419.929,585.193 C419.929,585.193 431.762,584.959 431.762,584.959 C433.342,583.555 432.934,581.917 433.951,580.872 C433.933,582.195 433.92,583.755 432.782,585.139 C434.644,587.399 437.518,585.083 439.137,585.102 Z " fill="rgb(139,160,166)"/>
<path d="M523.054,585.165 C523.054,585.165 523.012,587.203 523.012,587.203 C523.012,587.203 508.999,586.878 508.999,586.878 C509.218,585.948 510.402,584.8 511.49,584.832 C511.49,584.832 523.054,585.165 523.054,585.165 Z " fill="rgb(145,165,172)"/>
<path d="M391.572,568.366 C391.944,568.931 392.075,569.563 391.986,570.158 C391.986,570.158 367.252,569.985 367.252,569.985 C367.044,570.946 366.474,571.18 365.924,571.177 C366.216,570.453 365.461,568.91 367.18,568.646 C367.18,568.646 391.572,568.366 391.572,568.366 Z " fill="rgb(197,211,219)"/>
<path d="M359.91,568.561 C360.347,569.464 359.744,570.223 358.791,570.316 C358.791,570.316 334.004,570.002 334.004,570.002 C334.067,569.441 334.228,568.665 333.854,567.955 C333.898,567.567 335.029,568.895 335.474,568.894 C335.474,568.894 359.91,568.561 359.91,568.561 Z " fill="rgb(190,206,214)"/>
<path d="M488.082,585.157 C487.955,586.047 487.83,587.147 488.097,588.034 C487.592,588.122 486.978,587.949 486.759,587 C486.759,587 474.956,586.777 474.956,586.777 C475.357,586.232 475.991,585.736 476.074,584.916 C476.074,584.916 488.082,585.157 488.082,585.157 Z " fill="rgb(149,170,176)"/>
<path d="M228.927,568.828 C229.238,569.541 228.722,570.26 227.798,570.313 C227.798,570.313 205.335,570.135 205.335,570.135 C205.075,569.585 205.164,568.442 204.847,567.956 C205.126,567.622 206.077,568.906 206.43,568.905 C206.43,568.905 228.927,568.828 228.927,568.828 Z " fill="rgb(189,202,212)"/>
<path d="M261.93,568.837 C261.93,568.837 261.891,570.499 261.891,570.499 C261.891,570.499 239.026,570.141 239.026,570.141 C239.095,569.641 239.105,568.395 238.736,567.941 C239.023,567.604 240.045,568.892 240.42,568.891 C240.42,568.891 261.93,568.837 261.93,568.837 Z " fill="rgb(190,208,216)"/>
<path d="M375.06,585.162 C374.674,585.753 374.021,586.256 373.926,587.035 C373.926,587.035 361.888,586.776 361.888,586.776 C362.263,586.328 363.326,585.521 363.252,584.725 C363.252,584.725 375.06,585.162 375.06,585.162 Z " fill="rgb(156,178,184)"/>
<path d="M467.825,585.081 C468.529,586.016 470.206,586.097 471.112,586.76 C471.112,586.76 458.039,587.098 458.039,587.098 C458.002,586.311 457.393,585.775 456.967,585.255 C456.967,585.255 467.825,585.081 467.825,585.081 Z " fill="rgb(124,146,151)"/>
<path d="M197.091,605.154 C197.091,605.154 184.95,605.037 184.95,605.037 C184.098,605.029 183.84,604.452 183.903,603.972 C183.889,603.332 183.767,602.485 184.087,601.899 C184.087,601.899 197.091,605.154 197.091,605.154 Z " fill="rgb(98,126,128)"/>
<path d="M541.05,584.973 C540.875,585.328 540.922,586.025 541.058,586.598 C538.387,587.256 535.689,587.012 532.997,586.97 C532.997,586.97 529.917,585.171 529.917,585.171 C529.917,585.171 541.05,584.973 541.05,584.973 Z " fill="rgb(122,143,152)"/>
<path d="M412.085,585.199 C412.085,585.199 411.99,587.08 411.99,587.08 C411.99,587.08 402.755,586.823 402.755,586.823 C402.755,586.823 402.619,584.978 402.619,584.978 C402.619,584.978 412.085,585.199 412.085,585.199 Z " fill="rgb(120,145,148)"/>
<path d="M422.888,568.66 C422.888,568.66 422.994,570.248 422.994,570.248 C422.994,570.248 405.062,570.294 405.062,570.294 C405.062,570.294 405.008,568.788 405.008,568.788 C405.008,568.788 422.888,568.66 422.888,568.66 Z " fill="rgb(193,207,216)"/>
<path d="M455.917,568.845 C456.67,568.854 457.193,569.365 456.989,570.21 C456.989,570.21 441.136,570.243 441.136,570.243 C441.136,570.243 440.961,568.684 440.961,568.684 C440.961,568.684 455.917,568.845 455.917,568.845 Z " fill="rgb(190,205,214)"/>
<path d="M487.993,568.848 C488.761,568.855 489.224,569.458 489.009,570.218 C489.009,570.218 476.113,570.349 476.113,570.349 C476.113,570.349 475.99,568.745 475.99,568.745 C475.99,568.745 487.993,568.848 487.993,568.848 Z " fill="rgb(192,206,217)"/>
<path d="M527.349,568.877 C527.349,568.877 538.028,568.766 538.028,568.766 C538.034,569.326 537.994,569.856 537.831,570.433 C537.831,570.433 525.005,570.2 525.005,570.2 C524.755,569.588 525.18,569.04 525.555,569.012 C525.555,569.012 527.349,568.877 527.349,568.877 Z " fill="rgb(183,200,210)"/>
<path d="M572.004,568.799 C572.229,569.548 571.73,570.251 570.829,570.427 C567.561,569.479 563.435,570.069 559.998,570.238 C559.998,570.238 560.008,568.926 560.008,568.926 C560.008,568.926 572.004,568.799 572.004,568.799 Z " fill="rgb(184,200,210)"/>
<path d="M393.967,584.99 C394.03,585.76 394.654,586.264 395.108,586.76 C395.108,586.76 393,587.006 393,587.006 C391.498,584.685 386.502,587.315 384.999,584.991 C384.999,584.991 393.967,584.99 393.967,584.99 Z " fill="rgb(110,132,137)"/>
<path d="M173.809,620.068 C173.809,620.068 178.573,611.855 178.573,611.855 C179.359,614.364 184.773,612.217 190.589,614.132 C186.265,620.413 176.445,613.301 173.809,620.068 Z " fill="rgb(65,97,99)"/>
<path d="M698.916,586.968 C698.916,586.968 711.003,587.022 711.003,587.022 C711.003,587.022 728.789,587.084 728.789,587.084 C728.789,587.084 740.178,608.756 740.178,608.756 C739.868,610.159 740.27,610.621 741.373,612.634 C741.373,612.634 724.24,611.618 724.24,611.618 C724.24,611.618 716.836,607.103 716.836,607.103 C713.359,606.359 709.634,603.136 706.309,604.213 C703.398,603.323 701.364,601.572 700.144,598.817 C700.144,598.817 696.504,590.595 696.504,590.595 C695.954,589.354 695.952,588.22 696.936,587.477 C697.473,587.071 698.118,586.964 698.916,586.968 Z " fill="rgb(27,62,57)"/>
<path d="M715.01,584.992 C715.01,584.992 705.873,584.871 705.873,584.871 C705.873,584.871 709.633,579.629 709.633,579.629 C709.633,579.629 714.843,570.126 714.843,570.126 C714.843,570.126 720.018,570.953 720.018,570.953 C722.483,575.225 724.899,579.103 726.398,583.947 C722.251,585.501 718.528,585.039 715.01,584.992 Z " fill="rgb(35,72,69)"/>
<path d="M699.997,584.85 C699.997,584.85 705.873,584.871 705.873,584.871 C705.873,584.871 715.01,584.992 715.01,584.992 C715.01,584.992 711.003,587.022 711.003,587.022 C711.003,587.022 698.916,586.968 698.916,586.968 C698.916,586.968 698.034,585.027 698.034,585.027 C698.639,585.021 699.379,584.848 699.997,584.85 Z " fill="rgb(183,192,190)"/>
<path d="M715.961,568.087 C716.164,567.093 716.979,566.189 717.992,565.996 C718.179,566.695 718.184,567.569 717.496,567.992 C717.145,568.209 716.382,568.139 715.961,568.087 Z " fill="rgb(120,80,77)"/>
<path d="M697.881,568.711 C698.152,569.321 697.815,570.04 697.147,570.126 C697.147,570.126 690.498,570.002 690.498,570.002 C690.146,569.805 689.988,569.477 689.965,569.359 C689.965,569.359 697.881,568.711 697.881,568.711 Z " fill="rgb(180,200,205)"/>
<path d="M613.196,345.246 C599.408,357.641 578.573,356.186 566.078,343.432 C553.285,330.376 552.934,309.945 565.038,296.38 C576.932,283.05 598.15,280.931 612.135,292.724 C628.453,306.484 629.014,331.026 613.196,345.246 Z " fill="rgb(253,253,253)"/>
<path d="M268.233,470.053 C268.233,470.053 235.402,475.56 235.402,475.56 C235.646,459.465 235.916,431.752 247.913,424.872 C253.838,421.474 260.811,425.549 263.36,431.855 C268.27,443.998 268.673,457.226 268.233,470.053 Z " fill="rgb(59,115,99)"/>
<path d="M472.349,619.698 C472.373,620.669 470.867,622.33 469.992,622.334 C469.992,622.334 437.891,622.493 437.891,622.493 C435.498,617.823 436.292,607.854 437.595,606.255 C438.526,605.113 440.019,604.66 442.012,604.673 C442.012,604.673 466.984,604.831 466.984,604.831 C470.267,604.852 472.038,606.778 472.116,610.004 C472.116,610.004 472.349,619.698 472.349,619.698 Z " fill="rgb(29,65,60)"/>
<path d="M511.653,612.957 C511.967,613.674 511.868,613.99 511.863,614.374 C511.829,616.865 512.365,619.642 511.276,622.113 C511.276,622.113 483.929,622.504 483.929,622.504 C481.92,622.533 478.376,622.652 477.579,620.543 C475.926,616.167 475.686,605.112 478.298,605.132 C478.298,605.132 508.825,605.369 508.825,605.369 C511.269,606.369 510.797,611.002 511.653,612.957 Z " fill="rgb(30,66,61)"/>
<path d="M418.974,604.897 C418.974,604.897 430.022,605.018 430.022,605.018 C431.068,605.255 432.005,606.373 431.939,607.997 C431.939,607.997 431.464,619.753 431.464,619.753 C431.413,620.993 429.443,622.457 428.051,622.454 C428.051,622.454 400.978,622.413 400.978,622.413 C396.298,622.406 397.443,612.998 400.117,605.196 C400.117,605.196 418.974,604.897 418.974,604.897 Z " fill="rgb(31,65,61)"/>
<path d="M448.945,587.222 C451.94,587.23 453.002,598.179 449.399,602.166 C449.399,602.166 429.019,602.908 429.019,602.908 C429.019,602.908 420.065,602.929 420.065,602.929 C415.935,599.552 418.013,587.134 420.974,587.142 C420.974,587.142 448.945,587.222 448.945,587.222 Z " fill="rgb(32,65,62)"/>
<path d="M429.019,602.908 C429.019,602.908 430.022,605.018 430.022,605.018 C430.022,605.018 418.974,604.897 418.974,604.897 C419.284,604.27 419.996,603.751 420.065,602.929 C420.065,602.929 429.019,602.908 429.019,602.908 Z " fill="rgb(152,172,182)"/>
<path d="M514.944,612.004 C514.944,612.004 515.235,615.143 515.235,615.143 C513.662,615.863 512.939,614.886 511.863,614.374 C511.868,613.99 511.967,613.674 511.653,612.957 C512.446,611.608 513.903,611.803 514.944,612.004 Z " fill="rgb(152,172,182)"/>
<path d="M505.272,585.064 C504.822,585.483 504.189,586.294 504.031,586.989 C500.716,587.064 496.905,586.052 493.997,588.025 C494.743,586.754 495.169,586.31 493.934,585.149 C493.934,585.149 505.272,585.064 505.272,585.064 Z " fill="rgb(139,160,168)"/>
<path d="M336.05,646.22 C336.05,646.22 332.068,644.999 332.068,644.999 C332.068,644.999 331.133,646.647 331.133,646.647 C330.942,646.984 330.211,646.927 329.754,646.766 C331.91,644.376 332.068,640.854 332.665,637.625 C332.665,637.625 337.719,632.79 337.719,632.79 C337.969,637.37 335.287,641.109 336.05,646.22 Z " fill="rgb(121,147,154)"/>
<path d="M384.999,584.991 C386.502,587.315 391.498,584.685 393,587.006 C393,587.006 383.864,586.942 383.864,586.942 C383.843,586.256 383.298,585.745 382.891,585.198 C382.891,585.198 384.999,584.991 384.999,584.991 Z " fill="rgb(135,155,162)"/>
</svg>
